<svg id="Capa_1" enable-background="new 0 0 512 512" height="512" viewBox="0 0 512 512" width="512" xmlns="http://www.w3.org/2000/svg"><g><path d="m289.215 270.692-6.22-55.982-24.774-24.774-49.548 99.097h64.127c9.844-.001 17.503-8.557 16.415-18.341z" fill="#6f6571"/><path d="m148.955 0h-18.155l-17.082 19.69-36.718 175.114c-2.152 10.262 1.089 16.226 11.574 16.226h49.456l17.632-194.516 1.376-6.561c1.075-5.131-2.84-9.953-8.083-9.953z" fill="#6f6571"/><path d="m109.581 198.194c-10.485 0-18.316-9.644-16.164-19.905l37.383-178.289h-1.105c-11.723 0-21.841 8.217-24.247 19.69l-36.718 175.114c-2.152 10.262 5.679 19.906 16.164 19.906h49.456l1.776-16.516z" fill="#5d5360"/><path d="m365.576 33.032c0-9.122-7.395-16.516-16.516-16.516h-176.883l-10.271 8.395-97.957 467.183c-2.152 10.262 9.456 16.129 19.941 16.129h55.202l24.832-12.739c1.097-1.901 2.015-3.93 2.728-6.071l8.987-26.962-8.39-25.115 34.8-104.4 25.891-27.388 30.28-90.839 102.938-16.521c2.809-4.858 4.417-10.497 4.417-16.512v-41.291l-10.575-40.218 10.576-42.361z" fill="#ffe07d"/><path d="m349.06 57.806c-9.121 0-16.516 7.394-16.516 16.516v49.548c0 9.121 7.395 16.516 16.516 16.516h16.516v-82.58z" fill="#6f6571"/><path d="m398.608 123.871c-4.565 0-8.258-3.694-8.258-8.258 0-4.565 3.694-8.258 8.258-8.258 4.556 0 8.258-3.702 8.258-8.258s-3.702-8.258-8.258-8.258c-4.565 0-8.258-3.694-8.258-8.258 0-4.565 3.694-8.258 8.258-8.258 13.661 0 24.774 11.113 24.774 24.774s-11.113 24.774-24.774 24.774z" fill="#ff8086"/><path d="m398.608 156.903c-4.565 0-8.258-3.694-8.258-8.258s3.694-8.258 8.258-8.258c22.766 0 41.29-18.524 41.29-41.29s-18.524-41.29-41.29-41.29c-4.565 0-8.258-3.694-8.258-8.258s3.694-8.258 8.258-8.258c31.871 0 57.806 25.935 57.806 57.806s-25.935 57.806-57.806 57.806z" fill="#ff9a9f"/><path d="m175.64 462.452 52.301-156.903h-29.556c-14.218 0-26.841 9.098-31.337 22.587l-37.526 112.578c-3.565 10.695 4.395 21.739 15.668 21.739h30.45z" fill="#857e87"/><path d="m140.344 168.335 31.833-151.819h-16.516l-99.718 475.579c-2.152 10.262 5.68 19.905 16.165 19.905h63.208c11.943 0 22.787-6.468 28.608-16.516h-61.667c-15.728 0-27.475-14.465-24.247-29.858l52.611-250.916h127.6 74.323c12.196 0 22.901-6.684 28.623-16.516h-196.576c-15.728 0-27.475-14.466-24.247-29.859z" fill="#ffd064"/></g></svg>