<svg id="Capa_1" enable-background="new 0 0 512 512" height="512" viewBox="0 0 512 512" width="512" xmlns="http://www.w3.org/2000/svg"><g><circle cx="341.333" cy="256" fill="#ffd064" r="170.667"/><path d="m473.667 256c0-76.303-56.03-134-132.333-134-43.309 0-81.963 15.769-107.295 46.955-19.298 23.758-30.864 54.051-30.864 87.045 0 76.303 61.856 138.159 138.159 138.159 32.983 0 63.267-11.558 87.022-30.845 31.199-25.331 45.311-63.994 45.311-107.314z" fill="#fff5d7"/><circle cx="341.333" cy="256" fill="#ffa95f" r="56.889"/><path d="m58.921 168.82h16.254v40.635h-16.254z" fill="#ffd064" transform="matrix(-.866 .5 -.5 -.866 219.681 319.411)"/><circle cx="56.889" cy="171.542" fill="#ffe07d" r="8.127"/><path d="m136.127 302.545h16.254v40.635h-16.254z" fill="#ffd064" transform="matrix(.866 -.5 .5 .866 -142.105 115.382)"/><circle cx="154.413" cy="340.458" fill="#ffe07d" r="8.127"/><path d="m30.661 274.286h16.254v40.635h-16.254z" fill="#ffd064" transform="matrix(.5 .866 -.866 .5 274.528 113.71)"/><circle cx="21.193" cy="304.762" fill="#ffe07d" r="8.127"/><path d="m136.127 168.82h16.254v40.635h-16.254z" fill="#ffd064" transform="matrix(.866 .5 -.5 .866 113.895 -46.787)"/><circle cx="154.413" cy="171.542" fill="#ffe07d" r="8.127"/><path d="m58.921 302.545h16.254v40.635h-16.254z" fill="#ffd064" transform="matrix(-.866 -.5 .5 -.866 -36.319 635.994)"/><circle cx="56.889" cy="340.458" fill="#ffe07d" r="8.127"/><path d="m30.661 197.079h16.254v40.635h-16.254z" fill="#ffd064" transform="matrix(.5 -.866 .866 .5 -168.877 142.29)"/><circle cx="21.193" cy="207.238" fill="#ffe07d" r="8.127"/><path d="m20.317 235.683h16.254v40.635h-16.254z" fill="#ffd064" transform="matrix(0 -1 1 0 -227.556 284.445)"/><circle cx="8.127" cy="256" fill="#ffe07d" r="8.127"/><path d="m97.524 158.476h16.254v40.635h-16.254z" fill="#ffd064"/><path d="m97.524 312.889h16.254v40.635h-16.254z" fill="#ffd064" transform="matrix(-1 0 0 -1 211.302 666.413)"/><circle cx="105.651" cy="353.524" fill="#ffe07d" r="8.127"/><circle cx="105.651" cy="158.476" fill="#ffe07d" r="8.127"/><circle cx="105.651" cy="256" fill="#ff8086" r="73.143"/><circle cx="105.651" cy="256" fill="#db4655" r="56.889"/><path d="m144.437 247.873c-7.484 0-13.984 5.428-15.444 12.893-1.27 6.405-5.167 12.127-10.682 15.706-5.579 3.623-12.349 4.782-19.095 3.238-8.691-1.984-15.865-9.163-17.857-17.861-1.738-7.631-.095-15.103 4.635-21.036 6.056-7.591 16.468-10.845 25.603-8.313 4.333 1.21 8.81-1.325 10.008-5.655 1.198-4.321-1.333-8.802-5.659-10.004-3.524-.98-7.182-1.476-10.881-1.476-12.437 0-24.016 5.583-31.778 15.314-7.762 9.734-10.595 22.417-7.77 34.79 3.397 14.881 15.206 26.69 30.079 30.091 3.167.722 6.341 1.075 9.476 1.075 7.833 0 15.444-2.218 22.087-6.528 9.183-5.952 15.659-15.496 17.278-25.98h140.563l.016-16.254z" fill="#ffaae1"/><path d="m341.333 117.841c-43.328 0-81.964 19.903-107.295 51.113 23.752-19.278 54.003-30.796 86.977-30.796 76.303 0 138.159 61.856 138.159 138.159 0 32.975-11.542 63.244-30.819 86.996 31.21-25.331 51.137-63.986 51.137-107.314 0-76.302-61.856-138.158-138.159-138.158z" fill="#fff0af"/><path d="m347.159 224.004c-16.936-2.988-32.984 7.25-36.897 23.869h-25.246c-.382 2.661-.572 5.36-.572 8.127s.173 5.466.555 8.127h25.262c7.262 0 13.429-4.921 15.341-12.246 2.159-8.262 10.214-13.349 18.746-11.869 6.389 1.123 11.849 6.579 12.968 12.972.873 4.936-.381 9.714-3.532 13.46-3.095 3.69-7.635 5.81-12.452 5.81-4.492 0-8.127 3.639-8.127 8.127s3.635 8.127 8.127 8.127c9.627 0 18.706-4.234 24.905-11.611 6.19-7.377 8.778-17.119 7.095-26.722-2.3-13.108-13.062-23.869-26.173-26.171z" fill="#ffcdeb"/></g></svg>