<svg id="Capa_1" enable-background="new 0 0 512 512" height="512" viewBox="0 0 512 512" width="512" xmlns="http://www.w3.org/2000/svg"><g><path d="m414.267 227.525c-1.321-29.52-9.798-57.178-23.74-81.28l-10.62-16.255c-20.538-27.996-49.029-49.794-82.144-62.064-19.349-7.169-40.278-10.894-62.121-10.894-21.847 0-42.779 3.726-62.131 10.898-20.729 7.682-39.646 19.096-55.934 33.428-37.245 32.77-55.913 80.788-55.913 134.296 0 98.756 75.223 172.014 173.979 172.014 27.798 0 54.115.456 77.581-10.862 57.601-27.781 98.031-85.535 101.05-153.024z" fill="#c3ddff"/><path d="m251.898 398.21c-98.756 0-178.813-80.057-178.813-178.813 0-45.241 16.789-86.547 44.492-118.041-9.734 8.562-18.528 18.165-26.209 28.634l-10.62 16.254c-13.941 24.1-22.413 51.756-23.733 81.28v16.256c1.321 29.52 9.799 57.178 23.74 81.279l10.62 16.255c20.533 27.99 49.016 49.784 82.121 62.056 19.357 7.175 40.294 10.838 62.147 10.838 53.515 0 101.505-23.283 134.275-60.536-31.494 27.702-72.779 44.538-118.02 44.538z" fill="#a4ccff"/><path d="m414.267 243.78c.12-2.696.188-5.402.188-8.128s-.068-5.432-.188-8.128h-56.835c-.753-29.198-5.541-56.742-13.486-81.279h46.58c-3.25-5.616-6.798-11.048-10.62-16.256h-41.861c-10.239-25.317-24.063-46.624-40.281-62.067-19.357-7.176-40.268-11.084-62.122-11.084s-42.774 3.914-62.131 11.09c-16.218 15.443-30.032 36.744-40.272 62.061h-36.242l-7.625 6.593-.681 9.663h38.649c-7.945 24.537-12.734 52.08-13.486 81.279h-40.582l-2.462 8.128 3.916 8.128h39.128c.752 29.199 5.541 56.742 13.486 81.279h-19.711l-.007 9.941 13.473 6.315h12.145c2.709 6.698 5.668 13.115 8.855 19.214 3.471 6.644 16.277 18.346 16.277 18.346l15.133 1.276c-8.803-10.865-16.579-23.977-23.034-38.836h77.044v55.261l5.232 7.174 11.024-5.727v-56.708h77.044c-9.898 22.787-22.909 41.45-37.959 54.219l21.561 1.017c13.359-14.661 24.817-33.448 33.629-55.236h41.828c3.822-5.208 7.35-10.64 10.6-16.256h-46.528c7.945-24.537 12.734-52.08 13.486-81.279zm-186.752 81.279h-83.319c-8.266-24.119-13.309-51.768-14.094-81.279h97.412v81.279zm0-97.534h-97.412c.785-29.51 5.828-57.159 14.094-81.279h83.319v81.279zm0-97.535h-77.044c17.74-40.843 45.471-68.48 77.044-72.569zm16.255-72.569c31.573 4.089 59.303 31.727 77.044 72.569h-77.044zm83.319 267.638h-83.319v-81.279h97.412c-.784 29.511-5.827 57.16-14.093 81.279zm-83.319-97.534v-81.279h83.319c8.266 24.119 13.309 51.768 14.094 81.279z" fill="#faf5dc"/><g fill="#f5ebcd"><path d="m80.75 146.246h7.941c2.508-5.572 5.262-11.005 8.306-16.256h-5.629c-3.823 5.208-7.369 10.64-10.618 16.256z"/><path d="m282.855 395.534c-11.955 10.176-25.082 16.537-39.085 18.35v-15.861c-5.49-.246-10.905-.718-16.256-1.447v17.308c-20.077-2.6-38.621-14.749-54.01-33.733-11.197-5.468-21.675-12.033-31.41-19.622 8.862 16.972 19.465 31.475 31.401 42.841 19.357 7.176 40.293 11.096 62.147 11.096s45.854-4.132 66.437-12.632c4.893-4.659 5.239-8.388 9.661-14.061-9.273 3.302-18.976 6.02-28.885 7.761z"/><path d="m74.726 243.78c-.73-5.35-1.208-10.766-1.455-16.256h-16.257c-.121 2.696-.185 5.402-.185 8.128s.064 5.432.185 8.128z"/><path d="m107.628 325.059h-26.873c3.25 5.616 6.796 11.048 10.618 16.256h29.721c-4.801-5.148-9.293-10.569-13.466-16.256z"/><path d="m236.325 471.361h-.683c-5.334 0-10.628-.179-15.859-.528-4.477-.298-7.866-4.171-7.572-8.648.302-4.477 4.302-7.965 8.652-7.568 4.881.325 9.811.488 14.779.488 4.493 0 8.469 3.639 8.469 8.128.001 4.488-3.293 8.128-7.786 8.128z"/><path d="m142.958 451.7c-1.103 0-2.23-.23-3.302-.71-5.016-2.238-10.033-4.691-14.914-7.298-3.961-2.115-5.461-7.036-3.342-10.997 2.111-3.965 7.056-5.461 10.993-3.346 4.548 2.429 9.223 4.715 13.882 6.798 4.104 1.83 5.945 6.636 4.112 10.735-1.349 3.02-4.318 4.818-7.429 4.818z"/><path d="m65.91 395.392c-2.23 0-4.453-.913-6.056-2.711-3.691-4.127-7.263-8.414-10.62-12.743-2.746-3.548-2.095-8.656 1.453-11.402 3.556-2.746 8.652-2.099 11.406 1.449 3.119 4.028 6.437 8.021 9.874 11.862 2.992 3.346 2.707 8.485-.635 11.477-1.557 1.386-3.493 2.068-5.422 2.068z"/><path d="m18.635 312.57c-3.453 0-6.652-2.215-7.747-5.679-1.643-5.183-3.135-10.557-4.445-15.966-1.056-4.366 1.619-8.755 5.985-9.815 4.358-1.044 8.763 1.631 9.811 5.989 1.222 5.052 2.619 10.061 4.143 14.887 1.357 4.282-1.016 8.846-5.294 10.203-.818.258-1.644.381-2.453.381z"/><path d="m463.215 243.725c-4.493 0-8.128-3.639-8.128-8.128 0-5.096-.183-10.295-.54-15.446-.31-4.477 3.072-8.358 7.548-8.668 4.429-.314 8.358 3.068 8.676 7.548.381 5.524.572 11.096.572 16.565 0 4.49-3.636 8.129-8.128 8.129z"/><path d="m9.562 217.603c-.31 0-.619-.016-.929-.052-4.461-.512-7.667-4.54-7.152-9.001.627-5.512 1.46-11.033 2.461-16.407.833-4.405 5.104-7.33 9.485-6.493 4.413.825 7.326 5.072 6.501 9.485-.937 4.997-1.714 10.132-2.302 15.264-.467 4.148-3.984 7.204-8.064 7.204z"/><path d="m443.276 150.449c-3.104 0-6.064-1.786-7.421-4.798-2.088-4.639-4.381-9.291-6.826-13.827-2.127-3.953-.643-8.882 3.302-11.009 3.969-2.127 8.882-.651 11.017 3.302 2.619 4.874 5.088 9.878 7.334 14.867 1.841 4.096.016 8.906-4.08 10.747-1.08.484-2.215.718-3.326.718z"/><path d="m40.129 127.216c-1.421 0-2.857-.369-4.167-1.151-3.85-2.306-5.104-7.298-2.802-11.148 2.794-4.667 5.818-9.35 8.993-13.922 2.564-3.683 7.62-4.604 11.311-2.04 3.691 2.56 4.604 7.624 2.04 11.311-2.969 4.274-5.786 8.644-8.39 12.993-1.524 2.548-4.223 3.957-6.985 3.957z"/><path d="m386.762 73.615c-1.921 0-3.85-.679-5.405-2.056-3.802-3.385-7.802-6.699-11.89-9.85-3.556-2.742-4.215-7.846-1.476-11.402 2.738-3.552 7.842-4.223 11.398-1.472 4.389 3.381 8.683 6.941 12.779 10.581 3.35 2.98 3.651 8.12.667 11.473-1.604 1.805-3.835 2.726-6.073 2.726z"/><path d="m105.113 57.34c-2.564 0-5.08-1.206-6.667-3.465-2.572-3.675-1.683-8.743 1.992-11.319 4.508-3.159 9.176-6.199 13.89-9.033 3.826-2.322 8.834-1.083 11.152 2.766 2.318 3.846 1.079 8.842-2.77 11.156-4.381 2.643-8.739 5.477-12.938 8.422-1.421.996-3.048 1.473-4.659 1.473z"/><path d="m303.737 26.562c-.802 0-1.619-.123-2.429-.377-4.905-1.536-9.914-2.909-14.891-4.084-4.366-1.032-7.072-5.409-6.04-9.779 1.04-4.366 5.366-7.096 9.787-6.04 5.342 1.262 10.723 2.738 16.002 4.389 4.286 1.341 6.667 5.901 5.326 10.188-1.087 3.477-4.294 5.703-7.755 5.703z"/><path d="m192.908 20.205c-3.826 0-7.239-2.711-7.977-6.608-.841-4.409 2.056-8.664 6.469-9.505 5.405-1.028 10.922-1.877 16.391-2.52 4.493-.579 8.501 2.663 9.025 7.124.524 4.457-2.667 8.497-7.12 9.021-5.096.599-10.223 1.389-15.264 2.345-.508.099-1.024.143-1.524.143z"/></g><path d="m268.249 469.039c-3.985 0-7.461-2.925-8.041-6.977-.635-4.445 2.453-8.56 6.898-9.195 2.596-.373 5.167-.79 7.731-1.25 4.485-.818 8.644 2.139 9.445 6.552.794 4.417-2.135 8.644-6.556 9.441-2.754.5-5.532.949-8.318 1.345-.389.056-.778.084-1.159.084z" fill="#ffcacc"/><path d="m188.622 466.499c-.556 0-1.119-.056-1.683-.175-5.366-1.127-10.779-2.469-16.097-3.981-4.31-1.23-6.818-5.727-5.588-10.045s5.747-6.786 10.049-5.592c4.945 1.413 9.993 2.659 14.986 3.711 4.389.925 7.199 5.235 6.278 9.624-.802 3.831-4.183 6.458-7.945 6.458z" fill="#ffcacc"/><path d="m101.445 427.614c-1.659 0-3.342-.508-4.786-1.564-4.461-3.262-8.85-6.711-13.041-10.259-3.429-2.901-3.858-8.029-.96-11.458s8.025-3.858 11.454-.956c3.905 3.302 7.985 6.513 12.136 9.545 3.627 2.651 4.413 7.735 1.77 11.358-1.596 2.179-4.064 3.334-6.573 3.334z" fill="#ffcacc"/><path d="m37.891 356.483c-2.818 0-5.564-1.468-7.064-4.096-2.762-4.826-5.358-9.771-7.715-14.688-1.937-4.048-.222-8.902 3.826-10.842 4.032-1.953 8.898-.226 10.842 3.818 2.183 4.568 4.596 9.16 7.16 13.648 2.23 3.897.873 8.862-3.024 11.089-1.271.726-2.66 1.071-4.025 1.071z" fill="#ffcacc"/><path d="m9.078 265.565c-4.143 0-7.683-3.151-8.08-7.362-.516-5.437-.849-11.005-.992-16.545-.111-4.485 3.437-8.215 7.921-8.326.071-.004.143-.004.206-.004 4.397 0 8.017 3.504 8.128 7.925.127 5.163.437 10.35.913 15.418.429 4.469-2.85 8.433-7.318 8.858-.262.024-.524.036-.778.036z" fill="#ffcacc"/><path d="m458.191 196.025c-3.754 0-7.128-2.615-7.937-6.433-1.072-5.005-2.334-10.041-3.762-14.97-1.246-4.314 1.238-8.818 5.556-10.065 4.334-1.238 8.818 1.242 10.065 5.548 1.532 5.302 2.889 10.715 4.032 16.097.937 4.389-1.857 8.707-6.247 9.644-.572.124-1.144.179-1.707.179z" fill="#ffcacc"/><path d="m20.024 170.8c-.865 0-1.746-.143-2.611-.433-4.246-1.445-6.525-6.056-5.088-10.311 1.762-5.179 3.739-10.402 5.874-15.522 1.738-4.147 6.509-6.088 10.636-4.358 4.143 1.73 6.096 6.493 4.366 10.636-2 4.77-3.842 9.636-5.477 14.466-1.152 3.387-4.311 5.522-7.7 5.522z" fill="#ffcacc"/><path d="m419.083 109.055c-2.5 0-4.961-1.147-6.556-3.314-3.016-4.096-6.239-8.172-9.58-12.108-2.913-3.421-2.492-8.549.929-11.458 3.421-2.893 8.556-2.492 11.454.933 3.596 4.227 7.056 8.6 10.295 13.005 2.659 3.615 1.881 8.703-1.73 11.362-1.454 1.069-3.145 1.58-4.812 1.58z" fill="#ffcacc"/><path d="m68.95 88.847c-1.984 0-3.969-.718-5.532-2.175-3.286-3.06-3.477-8.199-.421-11.489 3.746-4.028 7.683-7.977 11.7-11.735 3.286-3.064 8.422-2.901 11.493.381 3.064 3.274 2.897 8.418-.381 11.485-3.746 3.504-7.414 7.183-10.906 10.942-1.603 1.718-3.778 2.591-5.953 2.591z" fill="#ffcacc"/><path d="m347.742 45.684c-1.357 0-2.738-.341-4.008-1.06-4.461-2.532-9.064-4.937-13.692-7.144-4.048-1.929-5.77-6.782-3.834-10.835 1.921-4.052 6.786-5.782 10.835-3.834 4.969 2.369 9.922 4.953 14.716 7.675 3.905 2.215 5.278 7.175 3.064 11.081-1.501 2.636-4.247 4.117-7.081 4.117z" fill="#ffcacc"/><path d="m147.03 34.103c-3.167 0-6.175-1.865-7.485-4.965-1.746-4.135.183-8.906 4.318-10.652 5.064-2.139 10.263-4.131 15.47-5.913 4.246-1.453 8.866.81 10.327 5.06 1.453 4.246-.81 8.866-5.056 10.323-4.85 1.659-9.699 3.508-14.406 5.501-1.033.436-2.113.646-3.168.646z" fill="#ffcacc"/><path d="m256.7 17.161c-.246 0-.492-.012-.746-.032-5.12-.468-10.319-.762-15.43-.877-4.485-.099-8.041-3.818-7.945-8.302.103-4.43 3.722-7.95 8.128-7.95h.183c5.477.123 11.049.437 16.541.937 4.469.409 7.763 4.362 7.358 8.834-.389 4.219-3.929 7.39-8.089 7.39z" fill="#ffcacc"/><path d="m459.611 284.428c-.476 0-.952-.04-1.445-.127-4.413-.79-7.358-5.016-6.564-9.434.46-2.572.881-5.155 1.262-7.755.635-4.433 4.77-7.477 9.199-6.882 4.445.643 7.525 4.766 6.882 9.207-.397 2.782-.849 5.548-1.341 8.295-.706 3.933-4.127 6.696-7.993 6.696z" fill="#ffcacc"/><g><path d="m511.997 406.5c0-58.266-47.234-105.5-105.5-105.5-25.697 0-49.248 9.187-67.548 24.456-23.194 19.352-34.822 48.475-34.822 81.044 0 58.266 44.104 101.409 102.37 101.409 32.578 0 61.708-10.675 81.06-33.881 15.259-18.297 24.44-41.84 24.44-67.528z" fill="#faf5dc"/><path d="m341.574 398.385h129.846v16.231h-129.846z" fill="#ffd064" transform="matrix(-.707 .707 -.707 -.707 981.372 406.502)"/><circle cx="452.404" cy="360.592" fill="#ffe07d" r="8.115"/><circle cx="360.589" cy="452.408" fill="#ffe07d" r="8.115"/><path d="m341.574 398.385h129.846v16.231h-129.846z" fill="#ffd064" transform="matrix(.707 .707 -.707 .707 406.499 -168.376)"/><circle cx="360.589" cy="360.592" fill="#ffe07d" r="8.115"/><circle cx="452.404" cy="452.408" fill="#ffe07d" r="8.115"/><path d="m341.574 398.385h129.846v16.231h-129.846z" fill="#ffd064" transform="matrix(0 1 -1 0 812.997 .003)"/><circle cx="406.497" cy="341.577" fill="#ffe07d" r="8.115"/><circle cx="406.497" cy="471.423" fill="#ffe07d" r="8.115"/><path d="m341.574 398.385h129.846v16.231h-129.846z" fill="#ffd064"/><path d="m447.074 406.5c0-22.41-18.167-40.577-40.577-40.577-8.083 0-15.613 2.363-21.939 6.436-11.213 7.22-15.482 19.813-15.482 34.141 0 22.41 15.011 37.999 37.421 37.999 14.346 0 26.953-4.867 34.168-16.104 4.056-6.316 6.409-13.831 6.409-21.895z" fill="#ff8086"/><path d="m418.67 434.904c-22.41 0-40.577-18.167-40.577-40.577 0-8.084 2.39-15.641 6.465-21.967-11.211 7.221-18.638 19.815-18.638 34.141 0 22.41 18.167 40.577 40.577 40.577 14.326 0 26.948-7.471 34.168-18.681-6.326 4.073-13.911 6.507-21.995 6.507z" fill="#e5646e"/><g fill="#ffe07d"><path d="m420.358 407.514c-4.486 0-8.147-3.634-8.147-8.115s3.59-8.115 8.076-8.115h.071c4.486 0 8.115 3.634 8.115 8.115s-3.63 8.115-8.115 8.115z"/><path d="m406.489 428.31c-4.486 0-8.147-3.634-8.147-8.115s3.598-8.115 8.084-8.115h.063c4.486 0 8.115 3.634 8.115 8.115s-3.63 8.115-8.115 8.115z"/><path d="m392.628 407.514c-4.486 0-8.155-3.634-8.155-8.115s3.598-8.115 8.084-8.115h.071c4.486 0 8.115 3.634 8.115 8.115s-3.63 8.115-8.115 8.115z"/><circle cx="341.574" cy="406.5" r="8.115"/><circle cx="471.42" cy="406.5" r="8.115"/></g><path d="m420.022 498.474c-58.266 0-105.5-47.234-105.5-105.5 0-25.689 9.166-49.221 24.426-67.518-23.204 19.353-37.952 48.467-37.952 81.044 0 58.266 47.234 105.5 105.5 105.5 32.577 0 61.707-14.768 81.06-37.972-18.296 15.261-41.845 24.446-67.534 24.446z" fill="#f5ebcd"/></g></g></svg>