<svg id="Capa_1" enable-background="new 0 0 512 512" height="512" viewBox="0 0 512 512" width="512" xmlns="http://www.w3.org/2000/svg"><g><path d="m330.457 35.61c-26.85-7.323-52.708-14.375-65.715-17.922-5.738-1.565-11.735-1.55-17.473.015l-166.635 45.446c-4.698 1.281-8.582 4.507-10.65 8.916-6.008 12.801-22.409 41.001-57.156 60.748l-4.828 17.187c8.923 40.319 41.602 163.329 158.5 271l10.223-2.807 2.626-42.01-44.349-248.516 186.766-42.494 14.31-38.636c1.698-4.585-.902-9.64-5.619-10.927z" fill="#eceaec"/><path d="m12.828 132.813c-1.313.748-2.498 1.396-3.864 2.12-6.613 3.5-10.195 10.861-8.578 18.167 8.923 40.319 45.081 167.914 161.979 275.585 5.195 4.785 13.608 1.517 14.049-5.532l.31-4.958c-129.776-120.762-160.316-265.91-163.896-285.382z" fill="#dad8db"/><path d="m248.939 68.897-135.484 36.95c-4.011 1.094-7.446 3.662-9.688 7.163-8.733 13.638-21.837 30.187-40.673 45.445-5.228 4.235-7.309 11.263-5.276 17.677 15.423 48.661 49.733 127.682 121.53 200.051l1.444-23.106-29.792-192.077 105.05 76.393.667.222c4.262 1.421 8.882-.795 10.443-5.008l54.606-147.435-59.679-16.276c-4.304-1.173-8.844-1.173-13.148.001z" fill="#a4ccff"/><path d="m245.531 87.237-121.166 33.044c-3.864 1.054-7.153 3.508-9.408 6.818-10.243 15.033-22.53 28.737-36.547 40.722-2.577 2.203-3.652 5.678-2.575 8.893 14.471 43.186 44.826 111.581 104.957 176.363l7.944-127.093c.341-5.456 5.758-9.11 10.945-7.381l56.369 18.789v-142.121c0-5.491-5.221-9.479-10.519-8.034z" fill="#8bb3ea"/><path d="m503.18 135.021c-35.042-18.487-52.562-45.767-59.804-60.114-3.181-6.301-8.855-10.891-15.664-12.749l-18.541-5.056c-3.83-1.045-7.865.76-9.64 4.31l-19.785 39.573-75.746 268.015-93.246 36.212-5.782 37.533 5.887 17.459c12.897 9.619 26.574 18.948 41.075 27.896l19.198.905c180.397-114.584 229.894-287.921 240.489-336.012 1.587-7.201-1.918-14.531-8.441-17.972z" fill="#eceaec"/><path d="m447.95 158.47c-18.977-15.37-32.138-32.049-40.873-45.746-2.173-3.408-5.607-5.814-9.507-6.878l-17.825-4.861-87.716 175.448c-1.603 3.206-5.078 5.027-8.627 4.52l-27.353-3.907-42.235 108.297-3.061 19.869c11.054 9.375 22.669 18.588 35.218 27.451 5.68 4.012 13.403 4.012 19.083.001 118.775-83.88 168.544-194.675 188.141-256.491 2.035-6.42-.012-13.464-5.245-17.703z" fill="#a4ccff"/><path d="m232.438 205.469c-3.489 0-6.734-2.208-7.897-5.697l-16.656-49.967c-1.456-4.363.903-9.08 5.262-10.536 4.392-1.468 9.084.907 10.532 5.266l16.656 49.967c1.456 4.363-.903 9.08-5.262 10.536-.878.292-1.765.431-2.635.431z" fill="#c3ddff"/><path d="m164.072 203.383c-1.252 0-2.521-.281-3.717-.878l-16.656-8.328c-4.115-2.058-5.782-7.059-3.725-11.174 2.066-4.115 7.067-5.778 11.174-3.725l16.656 8.328c4.115 2.058 5.782 7.059 3.725 11.174-1.463 2.919-4.399 4.603-7.457 4.603z" fill="#dbeaff"/><path d="m153.671 248.492h-16.656c-4.603 0-8.328-3.729-8.328-8.328s3.725-8.328 8.328-8.328h16.656c4.603 0 8.328 3.729 8.328 8.328s-3.725 8.328-8.328 8.328z" fill="#c3ddff"/><path d="m355.967 240.168c-3.302 0-6.433-1.984-7.734-5.237-1.708-4.274.374-9.117 4.644-10.829l41.639-16.656c4.229-1.683 9.117.366 10.825 4.64s-.374 9.117-4.644 10.829l-41.639 16.656c-1.009.402-2.058.597-3.091.597z" fill="#dbeaff"/><path d="m204.972 442.745-2.208 14.331c-.472 3.061.75 6.139 3.233 7.99 12.915 9.632 26.611 18.973 41.134 27.933 5.358 3.305 12.261 3.307 17.619.002 2.143-1.323 4.275-2.656 6.382-3.995-24.196-14.455-46.185-30.056-66.16-46.261z" fill="#dad8db"/><path d="m256.05 277.047-16.846-2.407c-4.518-.646-8.713 2.465-9.408 6.976l-15.981 103.728c9.095 8.082 18.572 16.065 28.77 23.804 5.52 4.189 13.465.346 13.465-6.583z" fill="#8bb3ea"/><g><path d="m341.559 275.841h16.638v41.595h-16.638z" fill="#ffd064" transform="matrix(-.866 .5 -.5 -.866 801.2 378.596)"/><circle cx="339.479" cy="278.627" fill="#ffe07d" r="8.319"/><path d="m420.589 412.726h16.638v41.595h-16.638z" fill="#ffd064" transform="matrix(.866 -.5 .5 .866 -159.299 272.535)"/><circle cx="439.307" cy="451.535" fill="#ffe07d" r="8.319"/><path d="m449.517 304.768h16.638v41.595h-16.638z" fill="#ffd064" transform="matrix(-.5 -.866 .866 -.5 404.805 884.846)"/><circle cx="475.847" cy="315.167" fill="#ffe07d" r="8.319"/><path d="m312.632 383.799h16.638v41.595h-16.638z" fill="#ffd064" transform="matrix(.5 .866 -.866 .5 510.866 -75.653)"/><circle cx="302.939" cy="414.995" fill="#ffe07d" r="8.319"/><path d="m420.589 275.841h16.638v41.595h-16.638z" fill="#ffd064" transform="matrix(.866 .5 -.5 .866 205.782 -174.712)"/><circle cx="439.307" cy="278.627" fill="#ffe07d" r="8.319"/><path d="m341.559 412.726h16.638v41.595h-16.638z" fill="#ffd064" transform="matrix(-.866 -.5 .5 -.866 436.119 983.905)"/><circle cx="339.479" cy="451.535" fill="#ffe07d" r="8.319"/><path d="m312.632 304.768h16.638v41.595h-16.638z" fill="#ffd064" transform="matrix(.5 -.866 .866 .5 -121.473 440.734)"/><circle cx="302.939" cy="315.167" fill="#ffe07d" r="8.319"/><path d="m449.517 383.799h16.638v41.595h-16.638z" fill="#ffd064" transform="matrix(-.5 .866 -.866 -.5 1037.144 210.397)"/><circle cx="475.847" cy="414.995" fill="#ffe07d" r="8.319"/><path d="m460.105 344.284h16.638v41.595h-16.638z" fill="#ffd064" transform="matrix(0 1 -1 0 833.505 -103.343)"/><circle cx="489.221" cy="365.081" fill="#ffe07d" r="8.319"/><path d="m302.044 344.284h16.638v41.595h-16.638z" fill="#ffd064" transform="matrix(0 -1 1 0 -54.719 675.444)"/><circle cx="289.565" cy="365.081" fill="#ffe07d" r="8.319"/><path d="m381.074 265.253h16.638v41.595h-16.638z" fill="#ffd064"/><circle cx="389.393" cy="265.253" fill="#ffe07d" r="8.319"/><path d="m381.074 423.314h16.638v41.595h-16.638z" fill="#ffd064" transform="matrix(-1 0 0 -1 778.786 888.224)"/><circle cx="389.393" cy="464.909" fill="#ffe07d" r="8.319"/><path d="m455.945 365.081c0 14.652-4.735 28.198-12.758 39.191-12.103 16.585-31.69 24.119-53.794 24.119-36.756 0-62.214-26.555-62.214-63.311 0-22.091 6.425-41.668 22.993-53.773 10.999-8.036 24.556-12.779 39.221-12.779 36.756.001 66.552 29.797 66.552 66.553z" fill="#ff8086"/><path d="m403.951 417.075c-36.756 0-66.552-29.796-66.552-66.552 0-14.66 4.742-28.218 12.773-39.214-16.574 12.105-27.331 31.677-27.331 53.773 0 36.756 29.796 66.552 66.552 66.552 22.095 0 41.69-10.787 53.794-27.361-10.996 8.031-24.575 12.802-39.236 12.802z" fill="#e5646e"/><g><path d="m389.393 348.443c-4.598 0-8.319-3.725-8.319-8.319v-8.319c0-4.594 3.721-8.319 8.319-8.319s8.319 3.725 8.319 8.319v8.319c0 4.594-3.721 8.319-8.319 8.319z" fill="#ffe07d"/></g><g><path d="m389.393 406.676c-4.598 0-8.319-3.725-8.319-8.319v-8.319c0-4.594 3.721-8.319 8.319-8.319s8.319 3.725 8.319 8.319v8.319c0 4.594-3.721 8.319-8.319 8.319z" fill="#ffe07d"/></g><g><path d="m422.669 373.4h-8.319c-4.598 0-8.319-3.725-8.319-8.319s3.721-8.319 8.319-8.319h8.319c4.598 0 8.319 3.725 8.319 8.319s-3.721 8.319-8.319 8.319z" fill="#ffe07d"/></g><g><path d="m364.436 373.4h-8.319c-4.598 0-8.319-3.725-8.319-8.319s3.721-8.319 8.319-8.319h8.319c4.598 0 8.319 3.725 8.319 8.319s-3.721 8.319-8.319 8.319z" fill="#ffe07d"/></g></g></g></svg>