<svg id="Capa_1" enable-background="new 0 0 512 512" height="512" viewBox="0 0 512 512" width="512" xmlns="http://www.w3.org/2000/svg"><g><path d="m328.961 1.041-34.698 19.276 16.042 28.876 34.698-19.276c3.987-2.215 5.423-7.242 3.208-11.229l-8.021-14.439c-2.215-3.987-7.242-5.423-11.229-3.208z" fill="#5d5360"/><path d="m233.02 93.228 83.574-46.43c3.987-2.215 5.423-7.242 3.208-11.229l-12.498-22.496c-2.215-3.987-7.242-5.423-11.229-3.208l-58.822 32.679z" fill="#6f6571"/><path d="m319.802 35.569-51.602 28.668c-7.974 4.43-18.029 1.557-22.459-6.417l-8.488-15.278-24.753 13.751 24.063 43.314 83.574-46.43c3.987-2.215 5.423-7.242 3.208-11.229z" fill="#5d5360"/><path d="m185.714 181.677v49.548c0 4.56 3.697 8.258 8.258 8.258h16.516c4.561 0 8.258-3.698 8.258-8.258v-49.548z" fill="#eceaec"/><path d="m169.198 140.387v33.032c0 9.122 7.395 16.516 16.516 16.516h41.29c9.122 0 16.516-7.395 16.516-16.516v-8.258z" fill="#dad8db"/><path d="m202.23 165.161h41.29v-16.516l-82.581-8.258v33.032c0 9.122 7.395 16.516 16.516 16.516h8.258v-8.258c.001-9.121 7.396-16.516 16.517-16.516z" fill="#c8c5c9"/><path d="m235.262 379.871h-33.032l-8.258-8.258v-24.774c0-4.561 3.697-8.258 8.258-8.258h33.032c4.561 0 8.258 3.697 8.258 8.258v24.774z" fill="#6f6571"/><path d="m293.069 272.516h-165.161l-8.258 24.774v82.581l41.29-8.258v-57.806c0-4.561 3.697-8.258 8.258-8.258h123.871c4.561 0 8.258-3.697 8.258-8.258v-16.516c0-4.562-3.697-8.259-8.258-8.259z" fill="#6f6571"/><path d="m119.65 371.613h41.29v24.774h-41.29z" fill="#5d5360"/><path d="m193.972 371.613h49.548v24.774h-49.548z" fill="#5d5360"/><path d="m160.94 115.613c-27.017 0-51.003 12.974-66.069 33.031l-9.963 49.55v184.806l43-11.387v-189.936c0-18.243 14.789-33.032 33.032-33.032h82.581v-33.032z" fill="#eceaec"/><path d="m111.391 371.613c-9.122 0-16.516-7.395-16.516-16.516v-206.45c-10.326 13.786-16.516 30.997-16.516 49.547v198.194h49.548v-24.774h-16.516z" fill="#dad8db"/><path d="m70.101 388.129c-4.561 0-8.258 3.697-8.258 8.258v31.613h198.194v-39.871z" fill="#eceaec"/><path d="m86.617 421.161c-9.122 0-16.516-7.395-16.516-16.516v-16.516h-8.258c-4.561 0-8.258 3.697-8.258 8.258v33.032c0 4.561 3.697 8.258 8.258 8.258h198.194v-16.516z" fill="#dad8db"/><path d="m211.527 45.301-50.587 28.104-8.258 23.753v11.342h93.32l4.859-9.403-28.104-50.588c-2.215-3.987-7.243-5.423-11.23-3.208z" fill="#dad8db"/><circle cx="127.908" cy="297.29" fill="#5d5360" r="24.774"/><path d="m250.861 99.097h-73.405c-9.122 0-16.516-7.395-16.516-16.516v-9.176l-3.773 2.096c-7.865 4.37-12.743 12.66-12.743 21.657v10.197c0 4.561 3.697 8.258 8.258 8.258h93.32c6.297 0 10.277-6.764 7.219-12.269z" fill="#c8c5c9"/><g><path d="m458.415 404.46c0-59.392-48.147-107.54-107.54-107.54-26.194 0-50.2 9.365-68.854 24.929-23.642 19.727-35.495 49.412-35.495 82.61 0 59.393 44.956 103.369 104.349 103.369 33.208 0 62.901-10.882 82.627-34.536 15.555-18.649 24.913-42.647 24.913-68.832z" fill="#faf5dc"/><path d="m284.697 396.188h132.356v16.545h-132.356z" fill="#ffd064" transform="matrix(-.707 .707 -.707 -.707 884.978 442.351)"/><circle cx="397.67" cy="357.665" fill="#ffe07d" r="8.272"/><circle cx="304.08" cy="451.255" fill="#ffe07d" r="8.272"/><path d="m284.697 396.188h132.356v16.545h-132.356z" fill="#ffd064" transform="matrix(.707 .707 -.707 .707 388.766 -129.643)"/><circle cx="304.08" cy="357.665" fill="#ffe07d" r="8.272"/><circle cx="397.67" cy="451.255" fill="#ffe07d" r="8.272"/><path d="m284.697 396.188h132.356v16.545h-132.356z" fill="#ffd064" transform="matrix(0 1 -1 0 755.336 53.585)"/><circle cx="350.875" cy="338.282" fill="#ffe07d" r="8.272"/><circle cx="350.875" cy="470.639" fill="#ffe07d" r="8.272"/><path d="m284.697 396.188h132.356v16.545h-132.356z" fill="#ffd064"/><path d="m392.237 404.46c0-22.843-18.518-41.361-41.361-41.361-8.239 0-15.915 2.409-22.363 6.561-11.429 7.36-15.781 20.196-15.781 34.801 0 22.843 15.301 38.734 38.144 38.734 14.623 0 27.474-4.961 34.829-16.415 4.134-6.439 6.532-14.1 6.532-22.32z" fill="#ff8086"/><path d="m363.284 433.413c-22.843 0-41.361-18.518-41.361-41.361 0-8.24 2.437-15.944 6.59-22.392-11.427 7.36-18.998 20.198-18.998 34.801 0 22.843 18.518 41.361 41.361 41.361 14.603 0 27.469-7.615 34.829-19.043-6.449 4.153-14.181 6.634-22.421 6.634z" fill="#e5646e"/><g fill="#ffe07d"><path d="m365.004 405.494c-4.572 0-8.305-3.704-8.305-8.272s3.66-8.272 8.232-8.272h.073c4.572 0 8.272 3.704 8.272 8.272.001 4.568-3.699 8.272-8.272 8.272z"/><path d="m350.867 426.692c-4.572 0-8.305-3.704-8.305-8.272s3.668-8.272 8.24-8.272h.065c4.572 0 8.272 3.704 8.272 8.272s-3.699 8.272-8.272 8.272z"/><path d="m336.738 405.494c-4.572 0-8.313-3.704-8.313-8.272s3.668-8.272 8.24-8.272h.073c4.572 0 8.272 3.704 8.272 8.272s-3.699 8.272-8.272 8.272z"/><circle cx="284.697" cy="404.46" r="8.272"/><circle cx="417.054" cy="404.46" r="8.272"/></g><path d="m364.663 498.213c-59.393 0-107.54-48.147-107.54-107.54 0-26.186 9.343-50.172 24.898-68.823-23.653 19.727-38.686 49.404-38.686 82.61 0 59.392 48.147 107.54 107.54 107.54 33.207 0 62.9-15.053 82.627-38.706-18.65 15.556-42.654 24.919-68.839 24.919z" fill="#f5ebcd"/></g></g></svg>