<svg id="Capa_1" enable-background="new 0 0 512 512" height="512" viewBox="0 0 512 512" width="512" xmlns="http://www.w3.org/2000/svg"><g><path d="m365.715 121.905h-48.762l-48.762 56.889h-65.016l-48.762-56.889h-48.762l-97.523 89.397 89.397-16.254 56.889 48.762s49.133-14.038 75.646 42.686c2.218 4.746 9.029 4.746 11.247 0 26.513-56.724 75.646-42.686 75.646-42.686l56.889-48.762 89.397 16.254z" fill="#c38c66"/><path d="m253.945 181.568 56.889-65.016c1.548-1.762 3.778-2.774 6.119-2.774h48.762c2.032 0 3.992.762 5.492 2.135l97.524 89.397c3.31 3.036 3.532 8.175.5 11.484-1.603 1.75-3.794 2.635-5.992 2.635-1.96 0-3.929-.706-5.492-2.135l-95.19-87.262h-28.99l46.688 60.028c2.762 3.54 2.119 8.647-1.421 11.405-1.484 1.151-3.246 1.71-4.984 1.71-2.421 0-4.817-1.079-6.421-3.139l-42.349-54.449v98.223c0 4.488-3.635 8.127-8.127 8.127s-8.127-3.639-8.127-8.127v-100.272l-42.643 48.736c-2.968 3.373-8.095 3.706-11.468.762-3.381-2.957-3.722-8.087-.77-11.468z" fill="#b57f5f"/><path d="m217.421 181.568-56.889-65.016c-1.548-1.762-3.778-2.774-6.119-2.774h-48.762c-2.032 0-3.992.762-5.492 2.135l-97.523 89.397c-3.31 3.036-3.532 8.175-.5 11.484 1.603 1.75 3.794 2.635 5.992 2.635 1.96 0 3.929-.706 5.492-2.135l95.19-87.262h28.99l-46.688 60.028c-2.762 3.54-2.119 8.647 1.421 11.405 1.484 1.151 3.246 1.71 4.984 1.71 2.421 0 4.817-1.079 6.421-3.139l42.349-54.449v98.223c0 4.488 3.635 8.127 8.127 8.127s8.127-3.639 8.127-8.127v-100.272l42.643 48.736c2.968 3.373 8.095 3.706 11.468.762 3.38-2.957 3.721-8.087.769-11.468z" fill="#b57f5f"/><path d="m235.683 189.333-16.254-43.048-2.38-2.38c-5.12-5.12-13.874-1.494-13.874 5.747v35.871c0 16.979 12.413 32.141 29.315 33.752 19.389 1.849 35.701-13.349 35.701-32.355v-37.269c0-7.24-8.754-10.866-13.874-5.747l-2.38 2.38z" fill="#d19a6e"/><path d="m512 292.571c0-58.349-47.301-105.651-105.651-105.651-25.734 0-49.318 9.2-67.645 24.491-23.227 19.38-34.872 48.544-34.872 81.159 0 58.349 44.167 101.554 102.516 101.554 32.625 0 61.796-10.691 81.176-33.929 15.282-18.322 24.476-41.899 24.476-67.624z" fill="#faf5dc"/><path d="m341.334 284.444h130.032v16.254h-130.032z" fill="#ffd064" transform="matrix(-.707 .707 -.707 -.707 900.561 212.118)"/><circle cx="452.322" cy="246.598" fill="#ffe07d" r="8.127"/><circle cx="360.376" cy="338.544" fill="#ffe07d" r="8.127"/><path d="m341.334 284.444h130.032v16.254h-130.032z" fill="#ffd064" transform="matrix(.707 .707 -.707 .707 325.896 -201.64)"/><circle cx="360.376" cy="246.598" fill="#ffe07d" r="8.127"/><circle cx="452.322" cy="338.544" fill="#ffe07d" r="8.127"/><path d="m341.334 284.444h130.032v16.254h-130.032z" fill="#ffd064" transform="matrix(0 1 -1 0 698.921 -113.778)"/><circle cx="406.349" cy="227.556" fill="#ffe07d" r="8.127"/><circle cx="406.349" cy="357.587" fill="#ffe07d" r="8.127"/><path d="m341.334 284.444h130.032v16.254h-130.032z" fill="#ffd064"/><path d="m446.984 292.571c0-22.442-18.193-40.635-40.635-40.635-8.094 0-15.636 2.367-21.97 6.446-11.229 7.23-15.504 19.841-15.504 34.189 0 22.442 15.032 38.054 37.474 38.054 14.366 0 26.991-4.874 34.217-16.127 4.062-6.325 6.418-13.851 6.418-21.927z" fill="#ff8086"/><path d="m418.54 321.016c-22.442 0-40.635-18.193-40.635-40.635 0-8.096 2.394-15.663 6.474-21.999-11.227 7.231-18.665 19.843-18.665 34.189 0 22.442 18.193 40.635 40.635 40.635 14.346 0 26.986-7.481 34.217-18.708-6.335 4.08-13.93 6.518-22.026 6.518z" fill="#e5646e"/><g fill="#ffe07d"><path d="m420.23 293.587c-4.492 0-8.159-3.639-8.159-8.127s3.595-8.127 8.087-8.127h.071c4.492 0 8.127 3.639 8.127 8.127.001 4.488-3.634 8.127-8.126 8.127z"/><path d="m406.341 314.413c-4.492 0-8.159-3.639-8.159-8.127s3.603-8.127 8.095-8.127h.064c4.492 0 8.127 3.639 8.127 8.127s-3.635 8.127-8.127 8.127z"/><path d="m392.461 293.587c-4.492 0-8.167-3.639-8.167-8.127s3.603-8.127 8.095-8.127h.071c4.492 0 8.127 3.639 8.127 8.127s-3.634 8.127-8.126 8.127z"/><circle cx="341.334" cy="292.571" r="8.127"/><circle cx="471.365" cy="292.571" r="8.127"/></g><path d="m419.894 384.677c-58.35 0-105.651-47.302-105.651-105.651 0-25.726 9.179-49.291 24.461-67.614-23.237 19.38-38.006 48.536-38.006 81.159 0 58.349 47.302 105.651 105.651 105.651 32.623 0 61.795-14.789 81.176-38.026-18.323 15.282-41.905 24.481-67.631 24.481z" fill="#f5ebcd"/><path d="m251.937 146.286-16.254 16.254-16.254-16.254v40.635c0 8.977 7.277 16.254 16.254 16.254 8.977 0 16.254-7.277 16.254-16.254z" fill="#e2a975"/></g></svg>