<svg id="Capa_1" enable-background="new 0 0 512 512" height="512" viewBox="0 0 512 512" width="512" xmlns="http://www.w3.org/2000/svg"><g><path d="m386.883 122.372-219.933-102.266c-36.197 7.014-69.02 23.483-95.796 46.734-43.591 37.853-63.654 93.679-63.654 155.943 0 114.02 84.932 198.532 198.952 198.532 111.422 0 206.308-190.771 206.308-190.771.095-2.575.143-5.162.143-7.761 0-36.448-9.445-70.689-26.02-100.411z" fill="#c3ddff"/><path d="m227.097 408.589c-114.02 0-206.451-92.431-206.451-206.452 0-51.754 19.046-99.063 50.509-135.297-43.593 37.853-71.155 93.677-71.155 155.943 0 114.02 92.431 206.452 206.452 206.452 3.629 0 7.236-.094 10.818-.279l15.047-20.435c-1.735.043-3.474.068-5.22.068z" fill="#a4ccff"/><path d="m412.76 230.544c-17.122 5.225-103.956 29.361-107.212-18.083-1.592-23.195 61.757 4.062 70.71-21.677 4.129-11.871-2.581-17.032-17.032-25.29-15.277-8.73-10.684-41.544 27.657-43.12-35.277-63.265-102.854-106.043-180.431-106.043-13.512 0-26.714 1.297-39.502 3.775 4.448 11.067 11.903 43.683-43.939 62.031-60.215 19.785-49.72 49.806-35.699 54.194 18.549 5.803 36.22-10.014 42.581 4.731 9.462 21.935-26.667 32.258-39.57 53.764-22.51 37.516 27.2 64.701 45.806 39.57 16.559-22.366 3.656-40.43 20.86-49.893 12.64-6.952 35.576 19.917 49.978-.43 10.839-15.312 26.323-28.043 45.829-24.854 8.38 1.966 14.945 7.659 18.171 14.961 7.136 16.149-4.213 46.257-34.194 51.828-24.301 4.516-51.368-8.769-59.14 9.247-9.463 21.935-18.925 38.495-45.377 41.721s-39.116 27.469-33.548 47.097c7.808 27.528 87.432 48.655 111.627 83.839l11.163 9.153c31.364-1.619 56.646 1.643 82.777-12.45 62.523-33.72 105.68-98.752 108.485-174.071z" fill="#95d6a4"/><path d="m227.097 408.589c-5.663 0-11.212-.23-16.76-.677 4.49 6.509 7.042 13.438 6.932 21.039 57.859-2.987 109.367-29.831 144.997-70.845-36.222 31.421-83.454 50.483-135.169 50.483z" fill="#78c2a4"/><path d="m407.105 380.061-166.504-51.867 14.254-1.379c4.532-.435 7.863-4.472 7.419-9.012-.435-4.54-4.395-7.891-9.016-7.423l-49.452 4.782c-3.113.298-5.782 2.335-6.911 5.254-1.121 2.919-.5 6.222 1.613 8.532l33.492 36.694c1.629 1.782 3.855 2.69 6.097 2.69 1.992 0 3.984-.714 5.565-2.157 3.371-3.077 3.613-8.298.532-11.669l-10.064-11.028 168.056 52.351c.823.258 1.645.379 2.46.379 3.524 0 6.782-2.27 7.887-5.806 1.354-4.357-1.081-8.986-5.428-10.341z" fill="#ff8086"/><path d="m410.919 382.569-216.246-252.369 18.771 7.933c4.202 1.778 9.048-.19 10.823-4.391 1.774-4.198-.185-9.044-4.387-10.819l-51.024-21.569c-2.895-1.226-6.202-.71-8.581 1.327-2.379 2.032-3.403 5.234-2.653 8.27l13.355 53.762c.935 3.758 4.306 6.266 8.008 6.266.661 0 1.331-.077 2-.242 4.427-1.101 7.121-5.581 6.024-10.008l-4.93-19.834 216.293 252.423c1.637 1.903 3.952 2.883 6.274 2.883 1.903 0 3.815-.653 5.371-1.988 3.467-2.966 3.87-8.18.902-11.644z" fill="#ff9a9f"/><path d="m412.331 384.916-100.015-253.884 9.442 7.691c3.548 2.887 8.758 2.347 11.621-1.19 2.879-3.536 2.347-8.738-1.185-11.617l-36.242-29.512c-2.435-1.98-5.766-2.403-8.613-1.125-2.855 1.286-4.734 4.073-4.855 7.198l-1.863 46.698c-.185 4.56 3.363 8.399 7.919 8.581.113.004.226.008.339.008 4.403 0 8.065-3.484 8.242-7.927l.447-11.164 99.392 252.301c1.282 3.25 4.395 5.234 7.685 5.234 1.008 0 2.032-.185 3.024-.581 4.242-1.671 6.331-6.465 4.662-10.711z" fill="#ff8086"/><circle cx="404.645" cy="321.88" fill="#ffe07d" r="8.258"/><g><path d="m512 388.129c0-59.392-48.147-107.54-107.54-107.54-26.194 0-50.2 9.365-68.854 24.929-23.642 19.727-35.495 49.412-35.495 82.61 0 59.393 44.956 103.369 104.349 103.369 33.208 0 62.901-10.882 82.627-34.536 15.555-18.649 24.913-42.648 24.913-68.832z" fill="#faf5dc"/><path d="m338.282 379.857h132.356v16.545h-132.356z" fill="#ffd064" transform="matrix(-.707 .707 -.707 -.707 964.906 376.581)"/><circle cx="451.255" cy="341.334" fill="#ffe07d" r="8.272"/><circle cx="357.665" cy="434.924" fill="#ffe07d" r="8.272"/><path d="m338.282 379.857h132.356v16.545h-132.356z" fill="#ffd064" transform="matrix(.707 .707 -.707 .707 392.912 -172.316)"/><circle cx="357.665" cy="341.334" fill="#ffe07d" r="8.272"/><circle cx="451.255" cy="434.924" fill="#ffe07d" r="8.272"/><path d="m338.282 379.857h132.356v16.545h-132.356z" fill="#ffd064" transform="matrix(0 1 -1 0 792.589 -16.331)"/><circle cx="404.46" cy="321.951" fill="#ffe07d" r="8.272"/><circle cx="404.46" cy="454.307" fill="#ffe07d" r="8.272"/><path d="m338.282 379.857h132.356v16.545h-132.356z" fill="#ffd064"/><path d="m445.822 388.129c0-22.843-18.518-41.361-41.361-41.361-8.239 0-15.915 2.409-22.363 6.561-11.429 7.36-15.781 20.196-15.781 34.801 0 22.843 15.301 38.734 38.144 38.734 14.623 0 27.474-4.961 34.829-16.415 4.134-6.44 6.532-14.1 6.532-22.32z" fill="#ff8086"/><path d="m416.869 417.082c-22.843 0-41.361-18.518-41.361-41.361 0-8.24 2.437-15.944 6.59-22.392-11.427 7.36-18.998 20.198-18.998 34.801 0 22.843 18.518 41.361 41.361 41.361 14.603 0 27.469-7.615 34.829-19.043-6.449 4.153-14.181 6.634-22.421 6.634z" fill="#e5646e"/><g fill="#ffe07d"><path d="m418.589 389.163c-4.572 0-8.305-3.704-8.305-8.272s3.66-8.272 8.232-8.272h.073c4.572 0 8.272 3.704 8.272 8.272s-3.699 8.272-8.272 8.272z"/><path d="m404.452 410.361c-4.572 0-8.305-3.704-8.305-8.272s3.668-8.272 8.24-8.272h.065c4.572 0 8.272 3.704 8.272 8.272s-3.699 8.272-8.272 8.272z"/><path d="m390.323 389.163c-4.572 0-8.313-3.704-8.313-8.272s3.668-8.272 8.24-8.272h.073c4.572 0 8.272 3.704 8.272 8.272s-3.699 8.272-8.272 8.272z"/><circle cx="338.282" cy="388.129" r="8.272"/><circle cx="470.639" cy="388.129" r="8.272"/></g><path d="m418.248 481.881c-59.393 0-107.54-48.147-107.54-107.54 0-26.186 9.343-50.172 24.898-68.823-23.653 19.727-38.686 49.404-38.686 82.61 0 59.392 48.147 107.54 107.54 107.54 33.207 0 62.9-15.053 82.627-38.706-18.65 15.556-42.654 24.919-68.839 24.919z" fill="#f5ebcd"/></g></g></svg>