<svg id="Capa_1" enable-background="new 0 0 512 512" height="512" viewBox="0 0 512 512" width="512" xmlns="http://www.w3.org/2000/svg"><g><path d="m94.996 379.871h181.677v16.516h-181.677z" fill="#ffe07d"/><path d="m94.996 222.968h181.677v16.516h-181.677z" fill="#ff8086"/><path d="m94.996 16.516h181.677v16.516h-181.677z" fill="#ff8086"/><path d="m94.996 165.161h181.677v16.516h-181.677z" fill="#ffe07d"/><path d="m193.464 88.577c-43.648-22.735-85.026-44.284-89.76-81.401-.523-4.101-3.998-7.176-8.132-7.176h-16.651c-4.893 0-8.736 4.255-8.266 9.125 5.362 55.526 59.501 83.722 107.551 108.75 46.387 24.161 90.21 46.984 90.21 88.577s-43.823 64.415-90.21 88.577c-48.049 25.027-102.189 53.224-107.551 108.75-.47 4.87 3.373 9.125 8.266 9.125h16.652c4.134 0 7.609-3.075 8.132-7.175 4.734-37.117 46.112-58.667 89.76-81.401 50.613-26.363 107.984-56.242 107.984-117.875s-57.372-91.513-107.985-117.876z" fill="#a4ccff"/><path d="m193.464 295.028c-46.387-24.161-90.21-46.984-90.21-88.577 0-39.302 39.133-61.845 82.581-84.594-2.532-1.326-5.074-2.652-7.629-3.983-9.048-4.713-18.307-9.55-27.421-14.649-41.865 23.423-80.562 52.611-80.562 103.226 0 61.633 57.371 91.512 107.984 117.875 46.387 24.161 90.21 46.984 90.21 88.577h33.032c-.001-61.633-57.372-91.512-107.985-117.875z" fill="#c3ddff"/><path d="m267.984 7.024c-4.37 35.036-41.361 56.213-82.155 77.572 11.423 5.973 23.358 12.085 35.055 18.63 39.294-21.985 75.797-49.047 80.133-94.138.468-4.856-3.387-9.088-8.265-9.088h-16.652c-4.077 0-7.611 2.979-8.116 7.024z" fill="#c3ddff"/><g><path d="m441.778 404.46c0-59.392-48.147-107.54-107.54-107.54-26.194 0-50.2 9.365-68.854 24.929-23.642 19.727-35.495 49.412-35.495 82.61 0 59.393 44.956 103.369 104.349 103.369 33.208 0 62.901-10.882 82.627-34.536 15.555-18.649 24.913-42.647 24.913-68.832z" fill="#faf5dc"/><path d="m268.06 396.188h132.356v16.545h-132.356z" fill="#ffd064" transform="matrix(-.707 .707 -.707 -.707 856.578 454.115)"/><circle cx="381.034" cy="357.665" fill="#ffe07d" r="8.272"/><circle cx="287.444" cy="451.255" fill="#ffe07d" r="8.272"/><path d="m268.06 396.188h132.356v16.545h-132.356z" fill="#ffd064" transform="matrix(.707 .707 -.707 .707 383.893 -117.879)"/><circle cx="287.444" cy="357.665" fill="#ffe07d" r="8.272"/><circle cx="381.034" cy="451.255" fill="#ffe07d" r="8.272"/><path d="m268.06 396.188h132.356v16.545h-132.356z" fill="#ffd064" transform="matrix(0 1 -1 0 738.699 70.222)"/><circle cx="334.239" cy="338.282" fill="#ffe07d" r="8.272"/><circle cx="334.239" cy="470.639" fill="#ffe07d" r="8.272"/><path d="m268.06 396.188h132.356v16.545h-132.356z" fill="#ffd064"/><path d="m375.6 404.46c0-22.843-18.518-41.361-41.361-41.361-8.239 0-15.915 2.409-22.363 6.561-11.429 7.36-15.781 20.196-15.781 34.801 0 22.843 15.301 38.734 38.144 38.734 14.623 0 27.474-4.961 34.829-16.415 4.134-6.439 6.532-14.1 6.532-22.32z" fill="#ff8086"/><path d="m346.647 433.413c-22.843 0-41.361-18.518-41.361-41.361 0-8.24 2.437-15.944 6.59-22.392-11.427 7.36-18.998 20.198-18.998 34.801 0 22.843 18.518 41.361 41.361 41.361 14.603 0 27.469-7.615 34.829-19.043-6.449 4.153-14.181 6.634-22.421 6.634z" fill="#e5646e"/><g fill="#ffe07d"><path d="m348.368 405.494c-4.572 0-8.305-3.704-8.305-8.272s3.66-8.272 8.232-8.272h.073c4.572 0 8.272 3.704 8.272 8.272s-3.7 8.272-8.272 8.272z"/><path d="m334.231 426.692c-4.572 0-8.305-3.704-8.305-8.272s3.668-8.272 8.24-8.272h.065c4.572 0 8.272 3.704 8.272 8.272s-3.7 8.272-8.272 8.272z"/><path d="m320.101 405.494c-4.572 0-8.313-3.704-8.313-8.272s3.668-8.272 8.24-8.272h.073c4.572 0 8.272 3.704 8.272 8.272.001 4.568-3.699 8.272-8.272 8.272z"/><circle cx="268.06" cy="404.46" r="8.272"/><circle cx="400.417" cy="404.46" r="8.272"/></g><path d="m348.026 498.213c-59.393 0-107.54-48.147-107.54-107.54 0-26.186 9.343-50.172 24.898-68.823-23.653 19.727-38.686 49.404-38.686 82.61 0 59.392 48.147 107.54 107.54 107.54 33.207 0 62.9-15.053 82.627-38.706-18.65 15.556-42.653 24.919-68.839 24.919z" fill="#f5ebcd"/></g></g></svg>