<svg id="Capa_1" enable-background="new 0 0 512 512" height="512" viewBox="0 0 512 512" width="512" xmlns="http://www.w3.org/2000/svg"><g><path d="m264.68 11.46-23.389 4.54c-40.789 49.904-157.5 200.205-157.5 319.415 0 97.525 66.066 172.252 163.591 172.252 20.62 0 40.414.799 58.81-5.697 68.612-24.227 117.775-89.65 117.775-166.556.001-115.27-114.821-268.813-159.287-323.954z" fill="#dbeaff"/><path d="m199.032 245.211h16.818v42.044h-16.818z" fill="#edf4ff" transform="matrix(-.866 .5 -.5 -.866 520.206 393.078)"/><circle cx="196.929" cy="248.027" fill="#fff" r="8.409"/><path d="m278.915 383.574h16.818v42.044h-16.818z" fill="#edf4ff" transform="matrix(.866 -.5 .5 .866 -163.804 197.868)"/><circle cx="297.835" cy="422.802" fill="#fff" r="8.409"/><path d="m308.155 274.451h16.818v42.044h-16.818z" fill="#edf4ff" transform="matrix(-.5 -.866 .866 -.5 218.959 717.361)"/><circle cx="334.769" cy="284.962" fill="#fff" r="8.409"/><path d="m169.792 354.334h16.818v42.044h-16.818z" fill="#edf4ff" transform="matrix(.5 .866 -.866 .5 414.169 33.352)"/><circle cx="159.995" cy="385.868" fill="#fff" r="8.409"/><path d="m278.915 245.211h16.818v42.044h-16.818z" fill="#edf4ff" transform="matrix(.866 .5 -.5 .866 171.611 -107.994)"/><circle cx="297.835" cy="248.027" fill="#fff" r="8.409"/><path d="m199.032 383.574h16.818v42.044h-16.818z" fill="#edf4ff" transform="matrix(-.866 -.5 .5 -.866 184.791 858.707)"/><circle cx="196.929" cy="422.802" fill="#fff" r="8.409"/><path d="m169.792 274.451h16.818v42.044h-16.818z" fill="#edf4ff" transform="matrix(.5 -.866 .866 .5 -166.786 302.063)"/><circle cx="159.995" cy="284.962" fill="#fff" r="8.409"/><path d="m308.155 354.334h16.818v42.044h-16.818z" fill="#edf4ff" transform="matrix(-.5 .866 -.866 -.5 799.914 288.883)"/><circle cx="334.769" cy="385.868" fill="#fff" r="8.409"/><path d="m318.857 314.393h16.818v42.044h-16.818z" fill="#edf4ff" transform="matrix(0 1 -1 0 662.681 8.148)"/><circle cx="348.288" cy="335.415" fill="#fff" r="8.409"/><path d="m159.09 314.393h16.818v42.044h-16.818z" fill="#edf4ff" transform="matrix(0 -1 1 0 -167.916 502.913)"/><circle cx="146.476" cy="335.415" fill="#fff" r="8.409"/><path d="m238.973 234.509h16.818v42.044h-16.818z" fill="#edf4ff"/><circle cx="247.382" cy="234.509" fill="#fff" r="8.409"/><path d="m238.973 394.276h16.818v42.044h-16.818z" fill="#edf4ff" transform="matrix(-1 0 0 -1 494.765 830.597)"/><circle cx="247.382" cy="436.321" fill="#fff" r="8.409"/><path d="m314.653 335.415c0 14.81-4.786 28.502-12.895 39.615-12.234 16.764-32.033 24.38-54.375 24.38-37.153 0-62.886-26.842-62.886-63.994 0-22.329 6.494-42.117 23.241-54.353 11.118-8.123 24.821-12.917 39.645-12.917 37.152-.002 67.27 30.116 67.27 67.269z" fill="#ff8086"/><path d="m262.098 387.97c-37.152 0-67.271-30.118-67.271-67.271 0-14.819 4.793-28.522 12.911-39.638-16.753 12.236-27.626 32.019-27.626 54.353 0 37.153 30.118 67.271 67.271 67.271 22.334 0 42.14-10.903 54.375-27.656-11.116 8.118-24.842 12.941-39.66 12.941z" fill="#e5646e"/><g fill="#ffe07d"><path d="m247.382 318.597c-4.648 0-8.409-3.765-8.409-8.409v-8.409c0-4.644 3.761-8.409 8.409-8.409s8.409 3.765 8.409 8.409v8.409c0 4.644-3.761 8.409-8.409 8.409z"/><path d="m247.382 377.459c-4.648 0-8.409-3.765-8.409-8.409v-8.409c0-4.644 3.761-8.409 8.409-8.409s8.409 3.765 8.409 8.409v8.409c0 4.644-3.761 8.409-8.409 8.409z"/><path d="m281.018 343.823h-8.409c-4.648 0-8.409-3.765-8.409-8.409s3.761-8.409 8.409-8.409h8.409c4.648 0 8.409 3.765 8.409 8.409s-3.762 8.409-8.409 8.409z"/><path d="m222.156 343.823h-8.409c-4.648 0-8.409-3.765-8.409-8.409s3.761-8.409 8.409-8.409h8.409c4.648 0 8.409 3.765 8.409 8.409s-3.761 8.409-8.409 8.409z"/></g><path d="m289.426 502.652c-97.525 0-176.585-79.06-176.585-176.585 0-109.334 103.256-253.037 151.839-314.606-1.515-1.879-2.96-3.659-4.304-5.304-6.71-8.209-19.277-8.209-25.987 0-40.789 49.904-163.592 210.048-163.592 329.258 0 97.525 79.06 176.585 176.585 176.585 20.592 0 40.434-3.55 58.81-10.03-5.473.511-11.159.682-16.766.682z" fill="#c3ddff"/><path d="m306.298 91.145h16.916v33.833h-16.916z" fill="#edf4ff" transform="matrix(.707 -.707 .707 .707 15.779 254.217)"/><circle cx="302.794" cy="96.1" fill="#fff" r="8.458"/><path d="m390.029 174.877h16.916v33.833h-16.916z" fill="#ffd064" transform="matrix(-.707 .707 -.707 -.707 815.878 45.638)"/><circle cx="410.449" cy="203.754" fill="#ffe07d" r="8.458"/><path d="m306.298 174.877h16.916v33.833h-16.916z" fill="#edf4ff" transform="matrix(-.707 -.707 .707 -.707 401.704 549.977)"/><circle cx="302.794" cy="203.754" fill="#fff" r="8.458"/><path d="m390.029 91.145h16.916v33.833h-16.916z" fill="#ffd064" transform="matrix(.707 .707 -.707 .707 193.125 -250.123)"/><circle cx="410.449" cy="96.1" fill="#ffe07d" r="8.458"/><path d="m288.956 133.011h16.916v33.833h-16.916z" fill="#edf4ff" transform="matrix(0 -1 1 0 147.487 447.342)"/><circle cx="280.498" cy="149.927" fill="#fff" r="8.458"/><path d="m407.371 133.011h16.916v33.833h-16.916z" fill="#ffd064" transform="matrix(0 1 -1 0 565.756 -265.902)"/><circle cx="432.745" cy="149.927" fill="#ffe07d" r="8.458"/><path d="m348.163 192.218h16.916v33.833h-16.916z" fill="#edf4ff" transform="matrix(-1 0 0 -1 713.243 418.268)"/><circle cx="356.622" cy="226.05" fill="#fff" r="8.458"/><path d="m348.163 73.804h16.916v33.833h-16.916z" fill="#ffd064"/><circle cx="356.622" cy="73.804" fill="#ffe07d" r="8.458"/><path d="m407.371 149.927c0 10.501-3.189 20.257-8.652 28.352-9.119 13.512-24.57 18.721-42.097 18.721-28.028 0-44.86-19.045-44.86-47.073 0-17.527 2.996-32.979 16.508-42.097 8.095-5.463 17.851-8.652 28.352-8.652 28.027 0 50.749 22.721 50.749 50.749z" fill="#ff8086"/><path d="m370.366 186.932c-28.028 0-50.749-22.721-50.749-50.749 0-10.501 3.19-20.257 8.652-28.352-13.512 9.118-22.397 24.57-22.397 42.097 0 28.028 22.721 50.749 50.749 50.749 17.527 0 32.979-8.885 42.097-22.397-8.095 5.461-17.851 8.652-28.352 8.652z" fill="#e5646e"/><circle cx="373.538" cy="141.469" fill="#ffe07d" r="8.458"/><circle cx="339.705" cy="141.469" fill="#ffe07d" r="8.458"/><circle cx="356.622" cy="166.843" fill="#ffe07d" r="8.458"/></g></svg>