<svg id="Capa_1" enable-background="new 0 0 512 512" height="512" viewBox="0 0 512 512" width="512" xmlns="http://www.w3.org/2000/svg"><g><path d="m327.445 88.106h-41.945c-4.633 0-8.389 3.756-8.389 8.389v38.389l58.722-13.222v-25.167c0-4.633-3.755-8.389-8.388-8.389z" fill="#b6b1b7"/><path d="m285.5 104.884v-16.778h-8.389c-4.633 0-8.389 3.756-8.389 8.389v58.722h67.111v-33.556h-33.556c-9.265 0-16.777-7.511-16.777-16.777z" fill="#9b959d"/><path d="m210 138.439h218.111c5.281 0 10.254 2.486 13.422 6.711l38.589 51.452c4.356 5.808 6.711 12.873 6.711 20.133v30.759h-276.833z" fill="#dad8db"/><path d="m421.688 155.217h-186.521v16.778h186.522c6.913 0 10.859-7.892 6.711-13.422-1.585-2.113-4.071-3.356-6.712-3.356z" fill="#8bb3ea"/><path d="m446.431 188.773h-211.264v16.778h211.264c6.61 0 10.623-7.289 7.089-12.875-1.538-2.43-4.214-3.903-7.089-3.903z" fill="#8bb3ea"/><path d="m214.981 112.355c-3.112-4.667-8.35-7.471-13.96-7.471h-83.298c-5.281 0-10.254 2.486-13.422 6.711l-7.55 10.067 1.833 8.639-14.416 8.139-12.584 16.778 4.979 9.229-17.563 7.548-12.583 16.777 12.585 25.167h192.943l25.166-8.389z" fill="#eceaec"/><path d="m15.27 213.363 64.932 51.945c5.95 4.76 13.342.575 20.962.575h301.781v-60.333h-381.417z" fill="#eceaec"/><g fill="#a4ccff"><path d="m277.111 247.495h-8.389c-4.637 0-8.389-3.756-8.389-8.389s3.752-8.389 8.389-8.389h8.389c4.637 0 8.389 3.756 8.389 8.389s-3.752 8.389-8.389 8.389z"/><path d="m319.056 247.495h-8.389c-4.637 0-8.389-3.756-8.389-8.389s3.752-8.389 8.389-8.389h8.389c4.637 0 8.389 3.756 8.389 8.389s-3.753 8.389-8.389 8.389z"/><path d="m193.222 247.495h-8.389c-4.637 0-8.389-3.756-8.389-8.389s3.752-8.389 8.389-8.389h8.389c4.637 0 8.389 3.756 8.389 8.389s-3.752 8.389-8.389 8.389z"/><path d="m109.334 247.495h-8.389c-4.637 0-8.389-3.756-8.389-8.389s3.752-8.389 8.389-8.389h8.389c4.637 0 8.389 3.756 8.389 8.389-.001 4.633-3.753 8.389-8.389 8.389z"/><path d="m151.278 247.495h-8.389c-4.637 0-8.389-3.756-8.389-8.389s3.752-8.389 8.389-8.389h8.389c4.637 0 8.389 3.756 8.389 8.389s-3.752 8.389-8.389 8.389z"/><path d="m235.167 247.495h-8.389c-4.637 0-8.389-3.756-8.389-8.389s3.752-8.389 8.389-8.389h8.389c4.637 0 8.389 3.756 8.389 8.389s-3.752 8.389-8.389 8.389z"/></g><path d="m113.872 255.884c-19.049 0-37.53-6.483-52.405-18.383l-39.939-31.951h-17.132c-4.147 0-5.979 5.222-2.741 7.813l64.932 51.945c5.95 4.76 13.342 7.353 20.962 7.353h315.396v-16.778h-289.073z" fill="#dad8db"/><path d="m46.417 188.773-12.583 16.777h202.436c6.7 0 10.697-7.467 6.98-13.042-1.556-2.334-4.175-3.736-6.98-3.736h-189.853z" fill="#a4ccff"/><path d="m59 171.995h154.9c6.7 0 10.697-7.467 6.98-13.042-1.556-2.334-4.175-3.735-6.98-3.735h-142.316z" fill="#a4ccff"/><path d="m84.167 138.439h107.363c6.7 0 10.697-7.467 6.98-13.042-1.556-2.334-4.175-3.736-6.98-3.736h-94.78z" fill="#a4ccff"/><g><path d="m512 314.727c0-60.291-48.876-109.167-109.167-109.167-26.59 0-50.96 9.507-69.896 25.306-24 20.025-36.032 50.159-36.032 83.86 0 60.291 45.637 104.933 105.928 104.933 33.711 0 63.852-11.046 83.877-35.058 15.79-18.931 25.29-43.293 25.29-69.874z" fill="#faf5dc"/><path d="m335.654 306.33h134.359v16.795h-134.359z" fill="#ffd064" transform="matrix(-.707 .707 -.707 -.707 910.225 252.427)"/><circle cx="450.336" cy="267.224" fill="#ffe07d" r="8.397"/><circle cx="355.33" cy="362.23" fill="#ffe07d" r="8.397"/><path d="m335.654 306.33h134.359v16.795h-134.359z" fill="#ffd064" transform="matrix(.707 .707 -.707 .707 340.533 -192.665)"/><circle cx="355.33" cy="267.224" fill="#ffe07d" r="8.397"/><circle cx="450.336" cy="362.23" fill="#ffe07d" r="8.397"/><path d="m335.654 306.33h134.359v16.795h-134.359z" fill="#ffd064" transform="matrix(0 1 -1 0 717.561 -88.106)"/><circle cx="402.833" cy="247.548" fill="#ffe07d" r="8.397"/><circle cx="402.833" cy="381.907" fill="#ffe07d" r="8.397"/><path d="m335.654 306.33h134.359v16.795h-134.359z" fill="#ffd064"/><path d="m444.821 314.727c0-23.189-18.798-41.987-41.987-41.987-8.364 0-16.156 2.445-22.701 6.66-11.602 7.471-16.02 20.502-16.02 35.327 0 23.189 15.533 39.32 38.722 39.32 14.844 0 27.89-5.036 35.356-16.664 4.195-6.535 6.63-14.311 6.63-22.656z" fill="#ff8086"/><path d="m415.429 344.118c-23.189 0-41.987-18.798-41.987-41.987 0-8.365 2.474-16.185 6.69-22.731-11.6 7.472-19.286 20.503-19.286 35.327 0 23.189 18.798 41.987 41.987 41.987 14.824 0 27.884-7.73 35.356-19.331-6.546 4.217-14.394 6.735-22.76 6.735z" fill="#e5646e"/><g fill="#ffe07d"><path d="m417.176 315.777c-4.642 0-8.43-3.76-8.43-8.397s3.715-8.397 8.356-8.397h.074c4.642 0 8.397 3.76 8.397 8.397s-3.755 8.397-8.397 8.397z"/><path d="m402.825 337.296c-4.642 0-8.43-3.76-8.43-8.397s3.723-8.397 8.365-8.397h.066c4.642 0 8.397 3.76 8.397 8.397s-3.756 8.397-8.398 8.397z"/><path d="m388.482 315.777c-4.642 0-8.438-3.76-8.438-8.397s3.723-8.397 8.365-8.397h.074c4.642 0 8.397 3.76 8.397 8.397s-3.756 8.397-8.398 8.397z"/><circle cx="335.654" cy="314.727" r="8.397"/><circle cx="470.013" cy="314.727" r="8.397"/></g><path d="m416.829 409.898c-60.291 0-109.167-48.876-109.167-109.167 0-26.582 9.484-50.931 25.275-69.864-24.01 20.025-39.271 50.151-39.271 83.86 0 60.291 48.876 109.167 109.167 109.167 33.709 0 63.852-15.281 83.877-39.291-18.932 15.79-43.299 25.295-69.881 25.295z" fill="#f5ebcd"/></g></g></svg>