<svg id="Capa_1" enable-background="new 0 0 512 512" height="512" viewBox="0 0 512 512" width="512" xmlns="http://www.w3.org/2000/svg"><g><path d="m156.903 189.935h82.581v82.581h-82.581z" fill="#ecbd83"/><path d="m310.83 264.958-38.314-17.216-74.322 8.258-74.323-8.258-38.314 17.216c-11.862 5.33-19.493 17.125-19.493 30.13v60.009c0 9.122 7.395 16.516 16.516 16.516h107.355l8.065-6.863 8.452 6.863h107.355c9.122 0 16.516-7.395 16.516-16.516v-60.009c0-13.005-7.631-24.8-19.493-30.13z" fill="#dad8db"/><path d="m445.936 404.645c0-59.29-48.064-107.355-107.355-107.355-26.07 0-49.97 9.293-68.568 24.746-23.698 19.693-32.013 49.389-32.013 82.609 0 59.291 41.29 101.355 100.581 101.355 33.168 0 62.823-9.042 82.516-32.676 15.509-18.613 24.839-42.557 24.839-68.679z" fill="#faf5dc"/><path d="m352.344 498.236c-59.291 0-107.355-48.065-107.355-107.355 0-26.141 9.495-50.226 25.024-68.845-23.612 19.693-38.787 49.459-38.787 82.608 0 59.29 48.065 107.355 107.355 107.355 33.15 0 62.823-15.064 82.516-38.676-18.62 15.53-42.612 24.913-68.753 24.913z" fill="#f5ebcd"/><path d="m289.032 107.355v-13.504c0-50.016-39.13-92.921-89.137-93.836-18.926-.346-36.558 5.102-51.25 14.682l-16.978 148.969 66.527 49.958c5.516 0 10.892.484 16.066-.656 31.024-6.836 54.774-33.055 57.906-65.311.403-4.155 3.986-7.27 8.16-7.27h7.824c8.227 0 15.853-5.622 17.173-13.743 1.682-10.348-6.26-19.289-16.291-19.289z" fill="#ffe09f"/><path d="m148.645 132.129v-117.431c-24.852 16.21-41.29 44.257-41.29 76.141v16.516c-10.03 0-17.973 8.941-16.29 19.289 1.321 8.121 8.946 13.743 17.173 13.743h7.824c4.175 0 7.757 3.115 8.161 7.27 3.654 37.635 35.377 67.052 73.971 67.052 5.49 0 10.915-.611 16.066-1.741-37.417-7.864-65.615-41.084-65.615-80.839z" fill="#f6d190"/><path d="m173.419 132.129c-4.565 0-8.258-3.694-8.258-8.258v-8.258c0-4.565 3.694-8.258 8.258-8.258s8.258 3.694 8.258 8.258v8.258c0 4.564-3.693 8.258-8.258 8.258z" fill="#966a5b"/><path d="m222.968 132.129c-4.565 0-8.258-3.694-8.258-8.258v-8.258c0-4.565 3.694-8.258 8.258-8.258 4.565 0 8.258 3.694 8.258 8.258v8.258c0 4.564-3.694 8.258-8.258 8.258z" fill="#966a5b"/><path d="m198.194 177.548c-8.685 0-16.492-2.097-21.427-5.75-3.669-2.71-4.444-7.887-1.726-11.548 2.726-3.677 7.887-4.435 11.548-1.726 1.177.871 5.105 2.508 11.605 2.508s10.427-1.637 11.605-2.508c3.669-2.734 8.839-1.944 11.548 1.726 2.718 3.661 1.944 8.839-1.726 11.548-4.936 3.654-12.742 5.75-21.427 5.75z" fill="#e2a975"/><path d="m222.968 86.984h-49.548c-4.565 0-8.258-3.694-8.258-8.258 0-4.565 3.694-8.258 8.258-8.258h49.548c4.565 0 8.258 3.694 8.258 8.258s-3.694 8.258-8.258 8.258z" fill="#f6d190"/><path d="m206.452 57.806h-16.516c-4.565 0-8.258-3.694-8.258-8.258s3.694-8.258 8.258-8.258h16.516c4.565 0 8.258 3.694 8.258 8.258s-3.694 8.258-8.258 8.258z" fill="#f6d190"/><g fill="#c8c5c9"><path d="m165.161 123.871c-3.581 0-6.879-2.339-7.927-5.944-1.274-4.379 1.234-8.968 5.613-10.242l16.516-4.815c4.419-1.306 8.976 1.242 10.242 5.613 1.274 4.379-1.234 8.968-5.613 10.242l-16.516 4.815c-.774.226-1.557.331-2.315.331z"/><path d="m231.226 123.871c-.758 0-1.54-.105-2.315-.331l-16.516-4.815c-4.379-1.274-6.887-5.863-5.613-10.242 1.266-4.371 5.798-6.919 10.242-5.613l16.516 4.815c4.379 1.274 6.887 5.863 5.613 10.242-1.048 3.605-4.347 5.944-7.927 5.944z"/><path d="m115.613 66.064c-9.121 0-16.516 7.394-16.516 16.516v27.065c2.438-1.419 5.234-2.291 8.258-2.291h8.258c9.121 0 16.516-7.395 16.516-16.516v-8.258c0-9.121-7.395-16.516-16.516-16.516z"/></g><path d="m280.774 66.064c9.121 0 16.516 7.394 16.516 16.516v27.065c-2.438-1.419-5.234-2.291-8.258-2.291h-8.258c-9.121 0-16.516-7.395-16.516-16.516v-8.258c0-9.121 7.395-16.516 16.516-16.516z" fill="#dad8db"/><path d="m259.954 235.179c-2.388-2.388-5.989-3.081-9.093-1.751l-46.161 19.784c-4.155 1.781-8.858 1.781-13.012 0l-46.161-19.784c-3.104-1.33-6.705-.637-9.092 1.751l-12.562 12.563 35.451 35.451c3.225 3.225 8.454 3.225 11.678 0l13.258-13.258c2.095-2.095 5.677-.611 5.677 2.352v99.326h16.516v-99.326c0-2.963 3.582-4.447 5.677-2.352l13.258 13.258c3.225 3.225 8.454 3.225 11.678 0l35.451-35.451z" fill="#eceaec"/><path d="m334.712 352.514-48.271 24.483c-3.472 1.761-5.221 5.675-4.26 9.448 3.847 15.101 17.015 52.752 56.258 76.007 39.214-23.238 52.567-60.852 56.5-75.974.985-3.788-.771-7.727-4.265-9.49l-48.504-24.481c-2.347-1.184-5.115-1.182-7.458.007z" fill="#c3ddff"/><path d="m331.22 436.864c2.837 2.507 7.352.521 7.346-3.264l-.097-57.544c-.005-3.173-3.355-5.227-6.185-3.791l-28.97 14.693c-1.896.962-2.829 3.178-2.106 5.177 4.463 12.335 13.266 29.928 30.012 44.729z" fill="#a4ccff"/></g></svg>