<svg id="Capa_1" enable-background="new 0 0 512 512" height="512" viewBox="0 0 512 512" width="512" xmlns="http://www.w3.org/2000/svg"><g><path d="m415.191 326.001h-380.191v-252.371l380.191 24.423z" fill="#b6b1b7"/><path d="m358.204 171.322h-16.282c-4.496 0-8.141-3.645-8.141-8.141v-24.423c0-4.496 3.645-8.141 8.141-8.141h16.282c4.496 0 8.141 3.645 8.141 8.141v24.423c0 4.496-3.645 8.141-8.141 8.141z" fill="#c3ddff"/><path d="m333.781 163.181v8.141c0 4.496 3.645 8.141 8.141 8.141h16.282c4.496 0 8.141-3.645 8.141-8.141v-8.141z" fill="#a4ccff"/><path d="m358.204 269.014h-16.282c-4.496 0-8.141-3.645-8.141-8.141v-24.423c0-4.496 3.645-8.141 8.141-8.141h16.282c4.496 0 8.141 3.645 8.141 8.141v24.423c0 4.496-3.645 8.141-8.141 8.141z" fill="#c3ddff"/><path d="m227.948 171.322h-16.282c-4.496 0-8.141-3.645-8.141-8.141v-24.423c0-4.496 3.645-8.141 8.141-8.141h16.282c4.496 0 8.141 3.645 8.141 8.141v24.423c0 4.496-3.645 8.141-8.141 8.141z" fill="#c3ddff"/><path d="m203.525 163.181v8.141c0 4.496 3.645 8.141 8.141 8.141h16.282c4.496 0 8.141-3.645 8.141-8.141v-8.141z" fill="#a4ccff"/><path d="m293.076 171.322h-16.282c-4.496 0-8.141-3.645-8.141-8.141v-24.423c0-4.496 3.645-8.141 8.141-8.141h16.282c4.496 0 8.141 3.645 8.141 8.141v24.423c0 4.496-3.645 8.141-8.141 8.141z" fill="#c3ddff"/><path d="m268.653 163.181v8.141c0 4.496 3.645 8.141 8.141 8.141h16.282c4.496 0 8.141-3.645 8.141-8.141v-8.141z" fill="#a4ccff"/><path d="m227.948 269.014h-16.282c-4.496 0-8.141-3.645-8.141-8.141v-24.423c0-4.496 3.645-8.141 8.141-8.141h16.282c4.496 0 8.141 3.645 8.141 8.141v24.423c0 4.496-3.645 8.141-8.141 8.141z" fill="#c3ddff"/><path d="m203.525 260.873v8.141c0 4.496 3.645 8.141 8.141 8.141h16.282c4.496 0 8.141-3.645 8.141-8.141v-8.141z" fill="#a4ccff"/><path d="m293.076 269.014h-16.282c-4.496 0-8.141-3.645-8.141-8.141v-24.423c0-4.496 3.645-8.141 8.141-8.141h16.282c4.496 0 8.141 3.645 8.141 8.141v24.423c0 4.496-3.645 8.141-8.141 8.141z" fill="#c3ddff"/><path d="m268.653 260.873v8.141c0 4.496 3.645 8.141 8.141 8.141h16.282c4.496 0 8.141-3.645 8.141-8.141v-8.141z" fill="#a4ccff"/><path d="m56.987 98.053h358.204v-24.423h-390.768v252.371h16.282v-211.666c0-8.992 7.29-16.282 16.282-16.282z" fill="#9b959d"/><path d="m431.473 334.142h-423.332c-4.5 0-8.141-3.641-8.141-8.141s3.641-8.141 8.141-8.141h423.332c4.5 0 8.141 3.641 8.141 8.141s-3.641 8.141-8.141 8.141z" fill="#c8c5c9"/><path d="m507.676 274.378-113.077-60.308c-2.394-1.277-5.268-1.277-7.662 0l-101.166 53.955-8.438 12.975c4.809 24.556 26.295 116.667 114.167 175l15.484-2.781c78.366-58.692 100.276-146.725 104.865-170.16.687-3.504-1.023-7.001-4.173-8.681z" fill="#eceaec"/><path d="m285.771 268.025-11.911 6.353c-3.15 1.68-4.86 5.178-4.174 8.682 4.809 24.556 28.634 120.039 116.506 178.372 2.735 1.816 6.416 1.816 9.151 0 4.021-2.669 7.884-5.398 11.641-8.212-88.383-60.075-114.903-155.262-121.213-185.195z" fill="#dad8db"/><path d="m97.692 171.322h-16.282c-4.496 0-8.141-3.645-8.141-8.141v-24.423c0-4.496 3.645-8.141 8.141-8.141h16.282c4.496 0 8.141 3.645 8.141 8.141v24.423c0 4.496-3.645 8.141-8.141 8.141z" fill="#c3ddff"/><path d="m410.16 49.207h-380.706c-3.084 0-5.903 1.742-7.282 4.5l-9.869 19.738c-1.913 3.825.869 8.326 5.146 8.326h404.715c4.277 0 7.058-4.501 5.146-8.326l-9.869-19.738c-1.379-2.758-4.198-4.5-7.281-4.5z" fill="#6f6571"/><path d="m325.64 326.001h130.256v16.282h-130.256z" fill="#ffc250" transform="matrix(-.707 .707 -.707 -.707 903.357 294.102)"/><circle cx="436.821" cy="288.09" fill="#ffd064" r="8.141"/><circle cx="344.716" cy="380.195" fill="#ffd064" r="8.141"/><path d="m325.64 326.001h130.256v16.282h-130.256z" fill="#ffc250" transform="matrix(.707 .707 -.707 .707 350.728 -178.447)"/><circle cx="344.716" cy="288.09" fill="#ffd064" r="8.141"/><circle cx="436.821" cy="380.195" fill="#ffd064" r="8.141"/><path d="m325.64 326.001h130.256v16.282h-130.256z" fill="#ffc250" transform="matrix(0 1 -1 0 724.91 -56.626)"/><circle cx="390.768" cy="269.014" fill="#ffd064" r="8.141"/><circle cx="390.768" cy="399.27" fill="#ffd064" r="8.141"/><path d="m325.64 326.001h130.256v16.282h-130.256z" fill="#ffc250"/><path d="m431.473 334.142c0-22.481-18.224-40.705-40.705-40.705-8.124 0-15.692 2.38-22.045 6.481-11.227 7.247-13.39 19.868-13.39 34.224 0 22.481 12.954 37.025 35.435 37.025 14.374 0 27.007-3.77 34.25-15.019 4.085-6.345 6.455-13.899 6.455-22.006z" fill="#ff8086"/><path d="m402.98 362.636c-22.481 0-40.705-18.224-40.705-40.705 0-8.11 2.361-15.667 6.448-22.013-11.246 7.244-18.66 19.853-18.66 34.224 0 22.481 18.224 40.705 40.705 40.705 14.371 0 27.006-7.453 34.25-18.699-6.346 4.087-13.929 6.488-22.038 6.488z" fill="#e5646e"/><g fill="#ffe07d"><path d="m404.673 335.16c-4.5 0-8.173-3.645-8.173-8.141s3.601-8.141 8.101-8.141h.072c4.5 0 8.141 3.645 8.141 8.141s-3.641 8.141-8.141 8.141z"/><path d="m390.76 356.021c-4.5 0-8.173-3.645-8.173-8.141s3.609-8.141 8.109-8.141h.064c4.5 0 8.141 3.645 8.141 8.141s-3.641 8.141-8.141 8.141z"/><path d="m376.855 335.16c-4.5 0-8.181-3.645-8.181-8.141s3.609-8.141 8.109-8.141h.072c4.5 0 8.141 3.645 8.141 8.141s-3.641 8.141-8.141 8.141z"/></g><circle cx="325.64" cy="334.142" fill="#ffd064" r="8.141"/><circle cx="455.896" cy="334.142" fill="#ffd064" r="8.141"/><path d="m73.269 163.181v8.141c0 4.496 3.645 8.141 8.141 8.141h16.282c4.496 0 8.141-3.645 8.141-8.141v-8.141z" fill="#a4ccff"/><path d="m162.82 171.322h-16.282c-4.496 0-8.141-3.645-8.141-8.141v-24.423c0-4.496 3.645-8.141 8.141-8.141h16.282c4.496 0 8.141 3.645 8.141 8.141v24.423c0 4.496-3.645 8.141-8.141 8.141z" fill="#c3ddff"/><path d="m138.397 163.181v8.141c0 4.496 3.645 8.141 8.141 8.141h16.282c4.496 0 8.141-3.645 8.141-8.141v-8.141z" fill="#a4ccff"/><path d="m97.692 269.014h-16.282c-4.496 0-8.141-3.645-8.141-8.141v-24.423c0-4.496 3.645-8.141 8.141-8.141h16.282c4.496 0 8.141 3.645 8.141 8.141v24.423c0 4.496-3.645 8.141-8.141 8.141z" fill="#c3ddff"/><path d="m73.269 260.873v8.141c0 4.496 3.645 8.141 8.141 8.141h16.282c4.496 0 8.141-3.645 8.141-8.141v-8.141z" fill="#a4ccff"/><path d="m162.82 269.014h-16.282c-4.496 0-8.141-3.645-8.141-8.141v-24.423c0-4.496 3.645-8.141 8.141-8.141h16.282c4.496 0 8.141 3.645 8.141 8.141v24.423c0 4.496-3.645 8.141-8.141 8.141z" fill="#c3ddff"/><path d="m138.397 260.873v8.141c0 4.496 3.645 8.141 8.141 8.141h16.282c4.496 0 8.141-3.645 8.141-8.141v-8.141z" fill="#a4ccff"/></g></svg>