<svg id="Capa_1" enable-background="new 0 0 512 512" height="512" viewBox="0 0 512 512" width="512" xmlns="http://www.w3.org/2000/svg"><g><path d="m466.77 82.581h-20.835l-41.29-41.29-29.059 7.265c-2.504.626-4.571 2.386-5.587 4.758l-19.843 46.301c-1.809 4.221.478 8.928 4.811 10.452 6.527 2.295 7.508 11.171 1.578 14.819l-79.155 48.711c-8.323 5.122-18.488 6.296-27.759 3.205l-45.726-15.242c-9.241-3.081-17.864-7.771-25.47-13.856l-22.742-18.193c-4.552-3.642-7.674-8.771-8.817-14.487l-4.654-23.268c-.974-4.871-5.997-7.786-10.709-6.215l-56.846 18.948c-5.358 1.786-9.432 6.185-10.801 11.664l-6.059 24.236-41.29 5.898-9.672 23.236c0 2.564.597 5.092 1.743 7.385l14.773 29.545v33.796c0 4.762 2.056 9.293 5.64 12.429l51.87 42.066c3.011 2.634 6.876 4.086 10.877 4.086h35.084l16.236 10.824c5.467 3.645 12.158 4.969 18.601 3.68l34.331-8.334-2 50.5 26.399 32.607 21.828-8.732c8.76-3.504 18.601-3.095 27.04 1.125l52.797 26.399 8.258-18.77 57.806-99.097 9.816-58.575c.534-3.188-.506-6.438-2.792-8.724l-23.54-23.54 33.032-24.774 10.677 10.677c3.225 3.225 8.454 3.225 11.678 0l39.632-39.632c2.435-2.435 3.039-6.155 1.499-9.235l-5.679-11.359 11.986-29.966c2.17-5.423-1.825-11.323-7.667-11.323z" fill="#ff8086"/><path d="m220.399 394.111 21.827-8.731c8.761-3.504 18.601-3.095 27.041 1.125l46.614 23.307c-3.842-6.425-5.876-13.93-6.115-21.523l-32.86-16.43c-4.336-2.168-8.938-3.805-13.717-4.616-9.34-1.585-18.548-.616-27.098 2.803l-16.138 6.455-17.893-22.381c2.364-5.055 4.391-11.163 4.391-18.12v-22.193c0-10.422-9.535-18.239-19.755-16.195l-31.228 6.246c-.533.107-1.078.161-1.619.161-1.636 0-3.22-.48-4.581-1.387l-16.366-10.911c-2.628-1.752-5.716-2.687-8.875-2.687h-35.24l-55.755-48.784v-37.695l-1.743-3.487-14.773-29.543v-23.236l-9.425 1.346c-4.069.578-7.091 4.063-7.091 8.173v13.714c0 2.564.597 5.093 1.744 7.386l14.773 29.545v33.796c0 4.763 2.056 9.293 5.64 12.429l55.755 48.785c3.011 2.635 6.876 4.087 10.876 4.087h35.084l16.236 10.824c5.467 3.645 12.158 4.968 18.602 3.68l31.227-6.245v22.683c0 5.018-1.738 9.799-4.514 13.979-1.99 2.996-1.921 6.885.322 9.69l25.138 31.442c2.271 2.84 6.137 3.86 9.516 2.508z" fill="#e5646e"/><path d="m408.96 356.315-239.857-147.01 20.785 2.598c4.548.569 8.653-2.649 9.218-7.169.565-4.524-2.645-8.653-7.169-9.218l-54.968-6.871c-3.153-.375-6.161 1.012-7.895 3.613s-1.855 5.964-.298 8.677l27.484 48.097c1.524 2.669 4.306 4.161 7.177 4.161 1.387 0 2.798-.351 4.089-1.089 3.96-2.262 5.339-7.306 3.073-11.266l-9.892-17.311 239.626 146.867c1.347.827 2.839 1.218 4.306 1.218 2.782 0 5.492-1.399 7.048-3.944 2.386-3.886 1.16-8.97-2.727-11.353z" fill="#ffe07d"/><path d="m411.863 359.343-75.621-136.119 16.855 13.167c3.589 2.802 8.782 2.161 11.589-1.423 2.806-3.593 2.169-8.786-1.427-11.593l-43.653-34.105c-2.468-1.935-5.815-2.286-8.629-.952-2.823 1.347-4.645 4.169-4.71 7.294l-1.097 55.383c-.089 4.56 3.532 8.331 8.097 8.423h.161c4.484 0 8.169-3.589 8.258-8.093l.386-19.6 75.356 135.64c1.508 2.714 4.323 4.246 7.226 4.246 1.355 0 2.734-.335 4-1.04 3.991-2.212 5.427-7.24 3.209-11.228z" fill="#ffd064"/><path d="m406.185 355.242-148.795-28.288 3.795-1.167c4.363-1.339 6.806-5.96 5.468-10.319-1.347-4.359-5.952-6.823-10.323-5.464l-36.653 11.274c-2.992.919-5.202 3.448-5.718 6.532-.516 3.085.758 6.198 3.29 8.036l31.016 22.565c1.46 1.069 3.161 1.581 4.847 1.581 2.556 0 5.073-1.177 6.686-3.399 2.685-3.69 1.871-8.855-1.823-11.536l-2.196-1.597 147.325 28.009c.516.101 1.04.145 1.548.145 3.887 0 7.355-2.758 8.105-6.714.856-4.485-2.088-8.807-6.572-9.658z" fill="#ffd064"/><g><path d="m512 363.17c0-59.393-48.147-107.54-107.54-107.54-26.194 0-50.2 9.365-68.854 24.929-23.642 19.727-35.495 49.412-35.495 82.61 0 59.392 44.956 103.369 104.349 103.369 33.208 0 62.901-10.882 82.627-34.536 15.555-18.649 24.913-42.648 24.913-68.832z" fill="#faf5dc"/><path d="m338.282 354.898h132.356v16.545h-132.356z" fill="#ffd064" transform="matrix(-.707 .707 -.707 -.707 947.257 333.973)"/><circle cx="451.255" cy="316.375" fill="#ffe07d" r="8.272"/><circle cx="357.665" cy="409.965" fill="#ffe07d" r="8.272"/><path d="m338.282 354.898h132.356v16.545h-132.356z" fill="#ffd064" transform="matrix(.707 .707 -.707 .707 375.264 -179.627)"/><circle cx="357.665" cy="316.375" fill="#ffe07d" r="8.272"/><circle cx="451.255" cy="409.965" fill="#ffe07d" r="8.272"/><path d="m338.282 354.898h132.356v16.545h-132.356z" fill="#ffd064" transform="matrix(0 1 -1 0 767.63 -41.29)"/><circle cx="404.46" cy="296.992" fill="#ffe07d" r="8.272"/><circle cx="404.46" cy="429.348" fill="#ffe07d" r="8.272"/><path d="m338.282 354.898h132.356v16.545h-132.356z" fill="#ffd064"/><path d="m445.822 363.17c0-22.843-18.518-41.361-41.361-41.361-8.239 0-15.915 2.409-22.363 6.561-11.429 7.36-15.781 20.196-15.781 34.801 0 22.843 15.301 38.734 38.144 38.734 14.623 0 27.474-4.961 34.829-16.415 4.134-6.44 6.532-14.1 6.532-22.32z" fill="#ff8086"/><path d="m416.869 392.123c-22.843 0-41.361-18.518-41.361-41.361 0-8.24 2.437-15.944 6.59-22.392-11.427 7.36-18.998 20.198-18.998 34.801 0 22.843 18.518 41.361 41.361 41.361 14.603 0 27.469-7.615 34.829-19.043-6.449 4.153-14.181 6.634-22.421 6.634z" fill="#e5646e"/><g fill="#ffe07d"><path d="m418.589 364.204c-4.572 0-8.305-3.704-8.305-8.272s3.66-8.272 8.232-8.272h.073c4.572 0 8.272 3.704 8.272 8.272s-3.699 8.272-8.272 8.272z"/><path d="m404.452 385.402c-4.572 0-8.305-3.704-8.305-8.272s3.668-8.272 8.24-8.272h.065c4.572 0 8.272 3.704 8.272 8.272s-3.699 8.272-8.272 8.272z"/><path d="m390.323 364.204c-4.572 0-8.313-3.704-8.313-8.272s3.668-8.272 8.24-8.272h.073c4.572 0 8.272 3.704 8.272 8.272s-3.699 8.272-8.272 8.272z"/><circle cx="338.282" cy="363.17" r="8.272"/><circle cx="470.639" cy="363.17" r="8.272"/></g><path d="m418.248 456.922c-59.393 0-107.54-48.147-107.54-107.54 0-26.186 9.343-50.172 24.898-68.823-23.653 19.727-38.686 49.404-38.686 82.61 0 59.392 48.147 107.54 107.54 107.54 33.207 0 62.9-15.053 82.627-38.706-18.65 15.556-42.654 24.919-68.839 24.919z" fill="#f5ebcd"/></g></g></svg>