<svg id="Capa_1" enable-background="new 0 0 512 512" height="512" viewBox="0 0 512 512" width="512" xmlns="http://www.w3.org/2000/svg"><g><path d="m482.393 474c-11.185-74.91-44.679-242.432-129.397-335.506-8.639-9.49-21.074-14.623-33.907-14.623-11.454 0-21.942 4.135-30.054 10.993l-10.083 35.579v284.508c0 27.365 22.183 49.548 49.548 49.548h121.236l28.592-9.015c3.605-6.23 5.227-13.706 4.065-21.484z" fill="#ff8086"/><path d="m192.911 123.871c-5.136 0-10.209.822-15 2.417 0 0-9.98 6.514-15.162 12.206-84.717 93.073-118.211 260.595-129.396 335.506-2.987 20.004 8.685 30 28.911 30h133.236l31.375-8.516c7.844-8.766 12.609-20.344 12.609-33.032v-292.008c0-25.722-20.851-46.573-46.573-46.573z" fill="#ff8086"/><path d="m84.974 495.484c-20.226 0-35.644-17.996-32.657-38 11.013-73.757 43.729-237.337 125.595-331.196-7.149 2.394-13.745 6.534-18.908 12.206-84.718 93.073-118.212 260.595-129.397 335.505-2.987 20.005 12.431 38.001 32.657 38.001h127.671c14.656 0 27.867-6.401 36.939-16.516z" fill="#e5646e"/><path d="m173.419 231.226c-2.113 0-4.226-.806-5.839-2.419-3.226-3.226-3.226-8.452 0-11.677l14.621-14.621c3.226-3.226 8.452-3.226 11.677 0 3.226 3.226 3.226 8.452 0 11.677l-14.621 14.621c-1.612 1.612-3.725 2.419-5.838 2.419z" fill="#db4655"/><path d="m167.218 386.065c-3.629 0-6.96-2.411-7.96-6.089-1.202-4.395 1.395-8.935 5.798-10.137l22.71-6.194c4.363-1.202 8.935 1.387 10.137 5.798 1.202 4.395-1.395 8.935-5.798 10.137l-22.71 6.194c-.726.202-1.451.291-2.177.291z" fill="#db4655"/><circle cx="181.677" cy="429.419" fill="#db4655" r="16.516"/><path d="m99.097 437.677c-2.113 0-4.226-.806-5.839-2.419l-8.258-8.258c-3.226-3.226-3.226-8.452 0-11.677 3.226-3.226 8.452-3.226 11.677 0l8.258 8.258c3.226 3.226 3.226 8.452 0 11.677-1.612 1.613-3.725 2.419-5.838 2.419z" fill="#db4655"/><path d="m199.226 181.677c-2.113 0-4.226-.806-5.839-2.419l-8.258-8.258c-3.226-3.226-3.226-8.452 0-11.677 3.226-3.226 8.452-3.226 11.677 0l8.258 8.258c3.226 3.226 3.226 8.452 0 11.677-1.612 1.613-3.725 2.419-5.838 2.419z" fill="#e5646e"/><path d="m134.194 436.129c-4.565 0-8.298-3.694-8.298-8.258s3.653-8.258 8.218-8.258h.081c4.565 0 8.258 3.694 8.258 8.258s-3.695 8.258-8.259 8.258z" fill="#e5646e"/><path d="m140.387 250.839c-4.565 0-8.298-3.694-8.298-8.258s3.653-8.258 8.218-8.258h.081c4.565 0 8.258 3.694 8.258 8.258s-3.694 8.258-8.259 8.258z" fill="#e5646e"/><path d="m204.903 341.161c-4.565 0-8.298-3.694-8.298-8.258s3.653-8.258 8.218-8.258h.081c4.565 0 8.258 3.694 8.258 8.258s-3.694 8.258-8.259 8.258z" fill="#e5646e"/><path d="m99.177 334.452c-4.565 0-8.298-3.694-8.298-8.258s3.653-8.258 8.218-8.258h.081c4.565 0 8.258 3.694 8.258 8.258s-3.694 8.258-8.259 8.258z" fill="#e5646e"/><path d="m74.323 478.968c-4.565 0-8.298-3.694-8.298-8.258s3.653-8.258 8.218-8.258h.081c4.565 0 8.258 3.694 8.258 8.258s-3.695 8.258-8.259 8.258z" fill="#e5646e"/><path d="m115.613 478.968c-2.113 0-4.226-.806-5.839-2.419-3.226-3.226-3.226-8.452 0-11.677l8.258-8.258c3.226-3.226 8.452-3.226 11.677 0 3.226 3.226 3.226 8.452 0 11.677l-8.258 8.258c-1.612 1.612-3.725 2.419-5.838 2.419z" fill="#e5646e"/><path d="m330.323 222.968c-2.113 0-4.226-.806-5.839-2.419-3.226-3.226-3.226-8.452 0-11.677l8.258-8.258c3.226-3.226 8.452-3.226 11.677 0 3.226 3.226 3.226 8.452 0 11.677l-8.258 8.258c-1.613 1.612-3.726 2.419-5.838 2.419z" fill="#db4655"/><path d="m338.573 396.387c-1.242 0-2.5-.282-3.685-.871l-16.516-8.258c-4.081-2.04-5.734-7-3.694-11.081 2.048-4.081 6.992-5.718 11.081-3.694l16.516 8.258c4.081 2.04 5.734 7 3.694 11.081-1.453 2.896-4.364 4.565-7.396 4.565z" fill="#db4655"/><circle cx="330.323" cy="454.194" fill="#db4655" r="16.516"/><path d="m412.903 437.677c-2.113 0-4.226-.806-5.839-2.419-3.226-3.226-3.226-8.452 0-11.677l8.258-8.258c3.226-3.226 8.452-3.226 11.677 0 3.226 3.226 3.226 8.452 0 11.677l-8.258 8.258c-1.612 1.613-3.725 2.419-5.838 2.419z" fill="#db4655"/><g fill="#e5646e"><path d="m322.064 181.677c-2.113 0-4.226-.806-5.839-2.419l-8.257-8.258c-3.226-3.226-3.226-8.452 0-11.677 3.226-3.226 8.452-3.226 11.677 0l8.258 8.258c3.226 3.226 3.226 8.452 0 11.677-1.613 1.613-3.726 2.419-5.839 2.419z"/><path d="m363.435 421.161h-.081c-4.565 0-8.258-3.694-8.258-8.258s3.694-8.258 8.258-8.258 8.298 3.694 8.298 8.258-3.652 8.258-8.217 8.258z"/><path d="m371.694 250.839h-.081c-4.565 0-8.258-3.694-8.258-8.258s3.694-8.258 8.258-8.258 8.298 3.694 8.298 8.258-3.653 8.258-8.217 8.258z"/><path d="m305.548 355.097h-.081c-4.565 0-8.258-3.694-8.258-8.258s3.694-8.258 8.258-8.258 8.298 3.694 8.298 8.258-3.652 8.258-8.217 8.258z"/><path d="m412.903 334.452h-.081c-4.565 0-8.258-3.694-8.258-8.258s3.694-8.258 8.258-8.258 8.298 3.694 8.298 8.258-3.652 8.258-8.217 8.258z"/><path d="m442.919 478.968h-.081c-4.565 0-8.258-3.694-8.258-8.258s3.694-8.258 8.258-8.258 8.298 3.694 8.298 8.258-3.652 8.258-8.217 8.258z"/><path d="m396.387 478.968c-2.113 0-4.226-.806-5.839-2.419l-8.258-8.258c-3.226-3.226-3.226-8.452 0-11.677 3.226-3.226 8.452-3.226 11.677 0l8.258 8.258c3.226 3.226 3.226 8.452 0 11.677-1.612 1.612-3.725 2.419-5.838 2.419z"/><path d="m322.064 495.484c-18.243 0-33.032-14.789-33.032-33.032v-191.355l79.457 79.457c4.045 4.045 6.09 10.098 4.115 15.467-.64 1.741-.992 3.622-.992 5.592 0 10.282 9.396 18.37 20.071 16.145 6.016-1.254 11.039-6.084 12.472-12.061 1.674-6.984-1.09-13.473-6.042-17.234-4.464-3.391-8.019-7.826-9.63-13.194l-16.871-56.236-8.967 8.967-70.779-70.78c-.983-.983-1.92-2.004-2.834-3.041v-89.312c-10.092 8.543-16.516 21.319-16.516 35.577v3.556c0-9.122-7.395-16.516-16.516-16.516-9.122 0-16.516 7.394-16.516 16.516v6.506c0 17.521-6.96 34.324-19.35 46.714l-70.779 70.78-8.968-8.967-16.871 56.236c-1.611 5.369-5.165 9.804-9.629 13.194-4.952 3.761-7.716 10.25-6.042 17.234 1.433 5.976 6.456 10.807 12.472 12.061 10.675 2.225 20.071-5.863 20.071-16.145 0-1.969-.352-3.85-.992-5.592-1.974-5.37.07-11.422 4.115-15.467l89.132-89.132c6.45-6.45 14.903-9.675 23.357-9.675 5.712 0 11.422 1.478 16.516 4.423v206.282c0 27.365 22.183 49.548 49.548 49.548h127.671c12.344 0 22.918-6.745 28.59-16.516z"/></g><circle cx="140.387" cy="289.032" fill="#db4655" r="16.516"/><path d="m264.258 0h-16.516c-4.561 0-8.258 3.697-8.258 8.258v173.419c0-9.122 7.395-16.516 16.516-16.516s16.516 7.394 16.516 16.516v-173.419c0-4.561-3.697-8.258-8.258-8.258z" fill="#db4655"/><g><circle cx="371.613" cy="289.032" fill="#db4655" r="16.516"/></g></g></svg>