<svg id="Capa_1" enable-background="new 0 0 512 512" height="512" viewBox="0 0 512 512" width="512" xmlns="http://www.w3.org/2000/svg"><g><path d="m322.065 206.452h16.516c4.561 0 8.258 3.697 8.258 8.258v33.032h-33.032v-33.032c-.001-4.561 3.697-8.258 8.258-8.258z" fill="#eceaec"/><path d="m381.373 252.376c9.108 3.903 15.014 12.859 15.014 22.769v30.839c0 4.565-3.694 8.258-8.258 8.258s-8.258-3.694-8.258-8.258v-5.135c0-3.625-2.364-6.827-5.829-7.893l-93.267-28.698-5.008-57.137z" fill="#dad8db"/><path d="m189.935 206.452h-16.516c-4.561 0-8.258 3.697-8.258 8.258v33.032h33.032v-33.032c.001-4.561-3.697-8.258-8.258-8.258z" fill="#eceaec"/><path d="m130.627 252.376c-9.108 3.903-15.014 12.859-15.014 22.769v30.839c0 4.565 3.694 8.258 8.258 8.258 4.565 0 8.258-3.694 8.258-8.258v-5.135c0-3.625 2.364-6.827 5.829-7.893l76.751-23.616 8.04-28.34-8.04-24.655z" fill="#dad8db"/><path d="m214.71 269.34 16.516-5.082 5.008-57.137-21.524 9.224z" fill="#c8c5c9"/><path d="m256 338.581 42.194 28.129c4.595 3.063 7.355 8.22 7.355 13.742v6.187c0 5.103-4.582 8.985-9.616 8.146l-33.145-5.524c-4.494-.749-9.082-.749-13.576 0l-33.145 5.524c-5.034.839-9.616-3.043-9.616-8.146v-6.187c0-5.522 2.76-10.679 7.355-13.742z" fill="#dad8db"/><path d="m254.668 115.648c-2.433.127-4.755.628-6.927 1.443l-8.741 24.698v160.173l8.742 69.662c2.804 7.826 13.964 7.645 16.619-.32l10.056-30.169c4.21-12.631 6.357-25.859 6.357-39.173v-161.575c0-14.124-11.819-25.487-26.106-24.739z" fill="#eceaec"/><path d="m247.742 117.094c-9.759 3.688-16.516 13.735-16.516 24.695v160.172c0 13.315 2.147 26.542 6.357 39.173l10.056 30.168c.025.075.077.247.103.321z" fill="#dad8db"/><path d="m256 0c-141.385 0-256 114.615-256 256s114.615 256 256 256 256-114.615 256-256-114.615-256-256-256zm0 487.226c-127.703 0-231.226-103.524-231.226-231.226 0-127.703 103.523-231.226 231.226-231.226s231.226 103.523 231.226 231.226c0 127.702-103.523 231.226-231.226 231.226z" fill="#ff8086"/><path d="m214.739 20.097c-130.285 22.788-217.429 146.878-194.642 277.164 22.788 130.285 146.878 217.43 277.163 194.642s217.43-146.878 194.642-277.163c-22.787-130.287-146.877-217.43-277.163-194.643zm-178.373 274.318c-21.216-121.3 59.919-236.832 181.219-258.049 57.724-10.096 114.116 3.023 159.685 32.581l-256.055 364.614c-43.271-32.83-74.752-81.422-84.849-139.146zm258.049 181.219c-57.724 10.096-114.116-3.023-159.685-32.581l256.055-364.614c43.271 32.831 74.752 81.422 84.849 139.146 21.216 121.3-59.919 236.832-181.219 258.049z" fill="#e5646e"/></g></svg>