<svg id="Capa_1" enable-background="new 0 0 512 512" height="512" viewBox="0 0 512 512" width="512" xmlns="http://www.w3.org/2000/svg"><g><path d="m244.501 0c-121.101 0-239.233 121.3-244.189 224.022-6.977 144.596 104.554 263.571 219.272 224.022 97.368-33.567 178.637-82.329 211.147-158.157 7.006-16.34 8.125-35.675 8.125-56.361 0-123.724-69.769-233.526-194.355-233.526z" fill="#ffd064"/><path d="m401 233.526c0-96.817-45.299-183.526-156.499-183.526-48 0-99.734 6.75-142.751 47.75-3.654 3.483-7.656 6.311-11.061 9.928-34.685 36.853-56.082 80.088-57.907 117.911-2.855 59.175 17.422 117.572 54.242 156.212 25.45 26.707 56.541 41.416 87.546 41.416 11.472 0 23.052-1.987 34.418-5.906 73.142-25.216 125.883-55.379 159.47-91.402 0 0 21.095-31.792 28.541-49.159 4.83-11.265 4.001-27.262 4.001-43.224z" fill="#fff5d7"/><g><path d="m154.403 314.786c-1.643 0-3.31-.496-4.746-1.532-27.556-19.857-44.008-51.893-44.008-85.698 0-33.81 16.452-65.845 44.008-85.698 3.675-2.619 8.73-1.79 11.349 1.845 2.619 3.643 1.794 8.722-1.841 11.345-23.333 16.806-37.262 43.913-37.262 72.508 0 28.591 13.929 55.698 37.262 72.508 3.635 2.627 4.46 7.706 1.841 11.345-1.587 2.206-4.079 3.377-6.603 3.377z" fill="#ffd064"/></g><g><path d="m268.197 314.786c-2.524 0-5.016-1.171-6.603-3.377-2.619-3.639-1.794-8.718 1.841-11.345 23.333-16.81 37.262-43.917 37.262-72.508 0-28.595-13.929-55.702-37.262-72.508-3.635-2.623-4.46-7.702-1.841-11.345s7.683-4.472 11.349-1.845c27.556 19.853 44.008 51.889 44.008 85.698 0 33.806-16.452 65.841-44.008 85.698-1.436 1.036-3.103 1.532-4.746 1.532z" fill="#ffd064"/></g><path d="m276.316 227.556c0 14.305-4.62 27.53-12.448 38.266-11.823 16.213-30.965 23.178-52.568 23.178-35.907 0-58.801-25.537-58.801-61.444 0-21.583 4.302-40.711 20.491-52.536 10.744-7.848 23.986-12.48 38.31-12.48 35.907 0 65.016 29.108 65.016 65.016z" fill="#ffa95f"/><path d="m225.522 278.349c-35.907 0-65.016-29.109-65.016-65.016 0-14.322 4.638-27.571 12.484-38.314-16.191 11.825-26.706 30.951-26.706 52.536 0 35.907 29.109 65.016 65.016 65.016 21.585 0 40.742-10.558 52.568-26.75-10.743 7.847-24.024 12.528-38.346 12.528z" fill="#ff8b5a"/><path d="m244.501 32.508c-48.001 0-100.203 23.514-143.221 64.514-3.669 3.497-7.175 7.024-10.591 10.656 38.766-27.415 82.003-42.658 122.39-42.658 116.038 0 168.888 104.202 168.888 201.018 0 15.963-.694 32.287-5.735 43.552-2.878 6.434-6.316 12.687-10.151 18.818 15.358-15.926 26.915-33.008 34.771-51.331 4.83-11.265 5.496-27.589 5.496-43.552 0-96.816-50.647-201.017-161.847-201.017z" fill="#fff0af"/><g><path d="m359.619 319.169h16.254v40.635h-16.254z" fill="#ffd064" transform="matrix(-.866 .5 -.5 -.866 855.966 449.618)"/><circle cx="357.587" cy="321.891" fill="#ffe07d" r="8.127"/><path d="m436.825 452.894h16.254v40.635h-16.254z" fill="#ffd064" transform="matrix(.866 -.5 .5 .866 -176.994 285.874)"/><circle cx="455.111" cy="490.807" fill="#ffe07d" r="8.127"/><path d="m465.084 347.429h16.254v40.635h-16.254z" fill="#ffd064" transform="matrix(-.5 -.866 .866 -.5 391.34 961.432)"/><circle cx="490.807" cy="357.587" fill="#ffe07d" r="8.127"/><path d="m331.359 424.635h16.254v40.635h-16.254z" fill="#ffd064" transform="matrix(.5 .866 -.866 .5 555.083 -71.527)"/><circle cx="321.891" cy="455.111" fill="#ffe07d" r="8.127"/><path d="m436.825 319.169h16.254v40.635h-16.254z" fill="#ffd064" transform="matrix(.866 .5 -.5 .866 229.356 -176.993)"/><circle cx="455.111" cy="321.891" fill="#ffe07d" r="8.127"/><path d="m359.619 452.894h16.254v40.635h-16.254z" fill="#ffd064" transform="matrix(-.866 -.5 .5 -.866 449.617 1066.898)"/><circle cx="357.587" cy="490.807" fill="#ffe07d" r="8.127"/><path d="m331.359 347.429h16.254v40.635h-16.254z" fill="#ffd064" transform="matrix(.5 -.866 .866 .5 -148.734 477.877)"/><circle cx="321.891" cy="357.587" fill="#ffe07d" r="8.127"/><path d="m465.084 424.635h16.254v40.635h-16.254z" fill="#ffd064" transform="matrix(-.5 .866 -.866 -.5 1095.157 257.616)"/><circle cx="490.807" cy="455.111" fill="#ffe07d" r="8.127"/><path d="m475.428 386.032h16.254v40.635h-16.254z" fill="#ffd064" transform="matrix(0 1 -1 0 889.904 -77.206)"/><circle cx="503.873" cy="406.349" fill="#ffe07d" r="8.127"/><path d="m321.015 386.032h16.254v40.635h-16.254z" fill="#ffd064" transform="matrix(0 -1 1 0 -77.207 735.492)"/><circle cx="308.825" cy="406.349" fill="#ffe07d" r="8.127"/><path d="m398.222 308.825h16.254v40.635h-16.254z" fill="#ffd064"/><circle cx="406.349" cy="308.825" fill="#ffe07d" r="8.127"/><path d="m398.222 463.238h16.254v40.635h-16.254z" fill="#ffd064" transform="matrix(-1 0 0 -1 812.697 967.111)"/><circle cx="406.349" cy="503.873" fill="#ffe07d" r="8.127"/><path d="m471.365 406.349c0 14.314-4.625 27.547-12.463 38.287-11.824 16.202-30.959 23.562-52.553 23.562-35.907 0-60.778-25.942-60.778-61.849 0-21.581 6.276-40.706 22.462-52.531 10.745-7.851 23.989-12.484 38.316-12.484 35.907-.001 65.016 29.108 65.016 65.015z" fill="#ff8086"/><path d="m420.571 457.143c-35.907 0-65.016-29.109-65.016-65.016 0-14.322 4.632-27.566 12.478-38.309-16.191 11.825-26.7 30.946-26.7 52.531 0 35.907 29.109 65.016 65.016 65.016 21.585 0 40.727-10.538 52.553-26.729-10.744 7.846-24.009 12.507-38.331 12.507z" fill="#e5646e"/><g><path d="m406.349 390.095c-4.492 0-8.127-3.639-8.127-8.127v-8.127c0-4.488 3.635-8.127 8.127-8.127s8.127 3.639 8.127 8.127v8.127c0 4.488-3.635 8.127-8.127 8.127z" fill="#ffe07d"/></g><g><path d="m406.349 446.984c-4.492 0-8.127-3.639-8.127-8.127v-8.127c0-4.488 3.635-8.127 8.127-8.127s8.127 3.639 8.127 8.127v8.127c0 4.488-3.635 8.127-8.127 8.127z" fill="#ffe07d"/></g><g><path d="m438.857 414.476h-8.127c-4.492 0-8.127-3.639-8.127-8.127s3.635-8.127 8.127-8.127h8.127c4.492 0 8.127 3.639 8.127 8.127s-3.635 8.127-8.127 8.127z" fill="#ffe07d"/></g><g><path d="m381.968 414.476h-8.127c-4.492 0-8.127-3.639-8.127-8.127s3.635-8.127 8.127-8.127h8.127c4.492 0 8.127 3.639 8.127 8.127s-3.635 8.127-8.127 8.127z" fill="#ffe07d"/></g></g></g></svg>