<svg id="Capa_1" enable-background="new 0 0 512 512" height="512" viewBox="0 0 512 512" width="512" xmlns="http://www.w3.org/2000/svg"><g><path d="m484.806 473.129-168.282-168.282 135.944-175.927c2.79-3.609 2.129-8.794-1.484-11.585-3.621-2.798-8.815-2.121-11.581 1.488l-129 166.941-38.016-212.893c-.798-4.492-5.081-7.48-9.581-6.677-4.492.802-7.476 5.093-6.677 9.581l36.669 205.346-237.411-237.411c-3.226-3.226-8.452-3.226-11.677 0-3.226 3.226-3.226 8.452 0 11.677l240.509 240.509-234.138-15.106c-4.71-.278-8.484 3.161-8.774 7.71-.29 4.552 3.161 8.48 7.71 8.774l233.406 15.058-138.673 102.18c-3.677 2.706-4.46 7.875-1.75 11.548 1.613 2.198 4.121 3.359 6.653 3.359 1.702 0 3.419-.524 4.887-1.609l151.19-111.403 168.399 168.399c1.613 1.613 3.726 2.419 5.839 2.419s4.226-.806 5.839-2.419c3.225-3.225 3.225-8.451-.001-11.677z" fill="#faf5dc"/><path d="m99.097 49.548c0 10.516-3.276 20.267-8.864 28.288-8.952 12.851-23.836 17.664-40.685 17.664-27.364 0-46.798-18.587-46.798-45.952 0-16.844 5.655-31.724 18.499-40.677 8.023-5.592 17.778-8.871 28.299-8.871 27.365 0 49.549 22.184 49.549 49.548z" fill="#ff8086"/><path d="m61.935 86.71c-27.365 0-49.548-22.183-49.548-49.548 0-10.517 3.274-20.269 8.862-28.29-12.849 8.951-21.249 23.829-21.249 40.676 0 27.365 22.183 49.548 49.548 49.548 16.848 0 31.733-8.411 40.685-21.26-8.021 5.589-17.78 8.874-28.298 8.874z" fill="#e5646e"/><path d="m478.968 123.871c0 5.926-1.561 11.488-4.293 16.297-5.68 9.994-16.422 14.332-28.739 14.332-18.243 0-29.685-12.386-29.685-30.629 0-12.301 3.377-23.031 13.349-28.716 4.818-2.747 10.394-4.316 16.337-4.316 18.242 0 33.031 14.789 33.031 33.032z" fill="#ff8086"/><path d="m458.323 144.516c-18.243 0-33.032-14.789-33.032-33.032 0-5.928 1.574-11.519 4.309-16.329-9.991 5.68-16.696 16.401-16.696 28.716 0 18.243 14.789 33.032 33.032 33.032 12.315 0 23.059-6.744 28.739-16.736-4.81 2.735-10.424 4.349-16.352 4.349z" fill="#e5646e"/><path d="m173.419 421.161c0 4.117-1.004 8-2.782 11.417-4.129 7.937-12.428 11.755-21.992 11.755-13.682 0-22.312-9.49-22.312-23.172 0-9.536 2.926-17.815 10.824-21.956 3.434-1.8 7.342-2.819 11.488-2.819 13.683.001 24.774 11.093 24.774 24.775z" fill="#ff8086"/><path d="m159.14 435.441c-13.682 0-24.774-11.092-24.774-24.774 0-4.129 1.005-8.037 2.792-11.461-7.92 4.134-13.287 12.403-13.287 21.956 0 13.682 11.092 24.774 24.774 24.774 9.553 0 17.859-5.436 21.992-13.357-3.423 1.786-7.368 2.862-11.497 2.862z" fill="#e5646e"/><circle cx="264.258" cy="74.323" fill="#ff8086" r="16.516"/><circle cx="49.548" cy="289.032" fill="#ff8086" r="16.516"/><g><path d="m412.903 305.548c0-59.29-48.064-107.355-107.355-107.355-26.149 0-50.114 9.349-68.736 24.886-23.602 19.693-35.434 49.327-35.434 82.468 0 59.29 44.879 103.192 104.17 103.192 33.151 0 62.793-10.863 82.485-34.476 15.528-18.618 24.87-42.575 24.87-68.715z" fill="#faf5dc"/><path d="m239.484 297.29h132.129v16.516h-132.129z" fill="#ffd064" transform="matrix(-.707 .707 -.707 -.707 737.659 305.548)"/><circle cx="352.263" cy="258.834" fill="#ffe07d" r="8.258"/><circle cx="258.834" cy="352.263" fill="#ffe07d" r="8.258"/><path d="m239.484 297.29h132.129v16.516h-132.129z" fill="#ffd064" transform="matrix(.707 .707 -.707 .707 305.548 -126.562)"/><circle cx="258.834" cy="258.834" fill="#ffe07d" r="8.258"/><circle cx="352.263" cy="352.263" fill="#ffe07d" r="8.258"/><path d="m239.484 297.29h132.129v16.516h-132.129z" fill="#ffd064" transform="matrix(0 1 -1 0 611.097 0)"/><circle cx="305.548" cy="239.484" fill="#ffe07d" r="8.258"/><circle cx="305.548" cy="371.613" fill="#ffe07d" r="8.258"/><path d="m239.484 297.29h132.129v16.516h-132.129z" fill="#ffd064"/><path d="m346.839 305.548c0-22.804-18.486-41.29-41.29-41.29-8.225 0-15.888 2.405-22.325 6.55-11.41 7.347-15.754 20.161-15.754 34.741 0 22.804 15.275 38.667 38.079 38.667 14.598 0 27.427-4.953 34.769-16.387 4.127-6.428 6.521-14.075 6.521-22.281z" fill="#ff8086"/><path d="m317.935 334.452c-22.804 0-41.29-18.486-41.29-41.29 0-8.226 2.432-15.916 6.579-22.354-11.408 7.348-18.966 20.163-18.966 34.741 0 22.804 18.486 41.29 41.29 41.29 14.578 0 27.421-7.602 34.769-19.01-6.437 4.146-14.155 6.623-22.382 6.623z" fill="#e5646e"/><g fill="#ffe07d"><path d="m319.653 306.581c-4.565 0-8.29-3.698-8.29-8.258s3.653-8.258 8.218-8.258h.073c4.565 0 8.258 3.698 8.258 8.258s-3.694 8.258-8.259 8.258z"/><path d="m305.54 327.742c-4.565 0-8.29-3.698-8.29-8.258s3.661-8.258 8.226-8.258h.065c4.565 0 8.258 3.698 8.258 8.258-.001 4.56-3.694 8.258-8.259 8.258z"/><path d="m291.435 306.581c-4.565 0-8.298-3.698-8.298-8.258s3.661-8.258 8.226-8.258h.073c4.565 0 8.258 3.698 8.258 8.258s-3.694 8.258-8.259 8.258z"/><circle cx="239.484" cy="305.548" r="8.258"/><circle cx="371.613" cy="305.548" r="8.258"/></g><path d="m319.312 399.14c-59.291 0-107.355-48.065-107.355-107.355 0-26.141 9.327-50.086 24.856-68.705-23.612 19.693-38.619 49.319-38.619 82.468 0 59.29 48.065 107.355 107.355 107.355 33.15 0 62.792-15.027 82.485-38.639-18.619 15.529-42.581 24.876-68.722 24.876z" fill="#f5ebcd"/></g><g><path d="m512 478.968c0 5.926-1.561 11.488-4.293 16.297-5.68 9.994-16.422 14.332-28.739 14.332-18.243 0-29.685-12.386-29.685-30.629 0-12.301 3.377-23.031 13.349-28.716 4.818-2.747 10.394-4.316 16.337-4.316 18.242-.001 33.031 14.789 33.031 33.032z" fill="#ff8086"/><path d="m491.355 499.613c-18.243 0-33.032-14.789-33.032-33.032 0-5.928 1.574-11.519 4.309-16.329-9.991 5.68-16.696 16.401-16.696 28.716 0 18.243 14.789 33.032 33.032 33.032 12.315 0 23.059-6.744 28.739-16.736-4.81 2.735-10.424 4.349-16.352 4.349z" fill="#e5646e"/></g></g></svg>