<svg id="Capa_1" enable-background="new 0 0 512 512" height="512" viewBox="0 0 512 512" width="512" xmlns="http://www.w3.org/2000/svg"><g><path d="m256.03 139.332c-63.118 0-116.118 44.125-129.789 103.146 1.341.122 2.641.249 3.87.349 5.102.413 10.226.971 15.261 1.911 4.51.842 9.419 2.146 13.78 4.301 10.597-43.656 50.011-76.175 96.878-76.175 54.964 0 99.687 44.723 99.687 99.686s-44.723 99.687-99.687 99.687c-11.649 0-22.836-2.014-33.237-5.704-.302 11.622-3.059 23.144-10.219 31.951 13.627 4.715 28.246 7.284 43.456 7.284 73.457 0 133.218-59.761 133.218-133.218s-59.761-133.218-133.218-133.218z" fill="#95d6a4"/><path d="m203.976 357.532c-28.057-17.25-46.969-47.995-47.615-83.123l-13.126-17.844-20.012 5.478c-.272 3.467-.41 6.971-.41 10.507 0 52.548 30.586 98.079 74.886 119.746l16.301-15.81z" fill="#95d6a4"/><path d="m136.972 213.127c-7.497 14.958-12.382 31.421-13.75 48.916 11.774 2.14 23.011 6.305 33.139 12.366-.013-.658-.017-1.199-.017-1.859 0-17.606 4.631-34.133 12.675-48.504-10.133-4.773-20.824-8.533-32.047-10.919z" fill="#78c2a4"/><path d="m253.668 372.117c-18.193-.429-35.151-5.629-49.693-14.585.042 6.929-.65 13.793-2.112 20.775-.995 4.756-2.5 9.487-4.166 13.989 14.943 7.314 31.453 11.761 48.872 12.993 3.6-10.654 6.013-21.763 7.099-33.172z" fill="#78c2a4"/><path d="m511.923 305.595c-9.306-33.794-31.3-64.092-64.058-83.005-23.901-13.8-50.198-19.549-75.856-18.29 14.146-21.707 22.442-47.578 22.442-75.42 0-37.925-15.321-72.2-40.047-97.173-1.547-1.562-4.004.461-2.787 2.291 14.779 22.223 22.04 49.856 17.998 79.361-7.02 51.235-49.006 92.105-100.401 97.836-69.244 7.72-127.875-46.27-127.875-113.954 0-23.314 7.001-44.961 18.972-63.043 1.226-1.851-1.24-3.923-2.799-2.344-24.641 24.961-39.902 59.176-39.902 97.026 0 27.842 8.297 53.713 22.442 75.42-25.658-1.259-51.955 4.49-75.856 18.29-13.807 7.972-25.703 17.966-35.541 29.392l-20.155 40.504c11.857-23.911 26.925-32.25 54.5-43.5 47.883-19.536 106.841-5.647 137.5 36 41.303 56.106 24.781 141.825-33.833 175.667-20.181 11.651-42.365 15.653-64 14.333l56.576 3.467c14.866-2.8 29.52-8.113 43.374-16.112 23.673-13.668 41.665-33.328 53.414-55.903 11.749 22.575 29.741 42.235 53.414 55.903 32.83 18.955 70.157 22.828 104.137 13.915 2.148-.563 1.66-3.709-.556-3.569-26.634 1.686-54.194-5.843-77.724-24.096-40.861-31.698-55.261-88.494-34.525-135.869 27.936-63.825 104.008-87.605 162.624-53.763 20.181 11.651 35.423 28.528 45.098 47.925 1 2.008 4.019.873 3.424-1.289zm-255.893-3.705c-16.204 0-29.34-13.136-29.34-29.34 0-16.205 13.136-29.34 29.34-29.34s29.34 13.136 29.34 29.34c0 16.203-13.136 29.34-29.34 29.34z" fill="#b3e59f"/><path d="m106.12 226.616c-28.842 0-55.761 9.564-77.466 25.367-13.649 15.787-23.183 34.116-28.578 53.836-.586 2.142 2.382 3.293 3.368 1.304 11.857-23.911 32.158-44.015 59.733-55.265 47.883-19.536 104.27-3.608 134.929 38.039 41.303 56.106 23.859 133.873-34.755 167.714-20.181 11.651-42.417 16.413-64.052 15.093-2.238-.137-2.765 3.046-.596 3.611 19.652 5.12 40.177 6.011 60.538 2.138 45.993-20.512 78.405-66.785 78.405-120.31.001-72.525-59.002-131.527-131.526-131.527z" fill="#95d6a4"/></g></svg>