<svg id="Capa_1" enable-background="new 0 0 512 512" height="512" viewBox="0 0 512 512" width="512" xmlns="http://www.w3.org/2000/svg"><g><g fill="#eac89f"><path d="m371.613 338.581h-28.113v-123.871l28.113 24.774z"/><path d="m305.548 338.581h-25.548v-123.871l25.548 24.774z"/><path d="m239.484 338.581h-25.984v-123.871l25.984 24.774z"/><path d="m173.419 338.581h-23.919v-123.871l23.919 24.774z"/></g><path d="m173.419 239.484v-24.774h-33.032v123.871h16.516v-82.581c0-9.122 7.395-16.516 16.516-16.516z" fill="#d2af8c"/><path d="m239.484 239.484v-24.774h-33.032v123.871h16.516v-82.581c0-9.122 7.394-16.516 16.516-16.516z" fill="#d2af8c"/><path d="m305.548 239.484v-24.774h-33.032v123.871h16.516v-82.581c0-9.122 7.395-16.516 16.516-16.516z" fill="#d2af8c"/><path d="m371.613 239.484v-24.774h-33.032v123.871h16.516v-82.581c0-9.122 7.394-16.516 16.516-16.516z" fill="#d2af8c"/><path d="m379.871 363.355h-247.742c-4.561 0-8.258-3.697-8.258-8.258v-16.516c0-4.561 3.697-8.258 8.258-8.258h8.258l247.742 16.516v8.258c0 4.561-3.697 8.258-8.258 8.258z" fill="#eac89f"/><path d="m388.129 346.839h-239.484c-4.561 0-8.258-3.697-8.258-8.258v-8.258h239.484c4.561 0 8.258 3.697 8.258 8.258z" fill="#f4dbb3"/><path d="m248.272 127.962-128.265 67.905c-2.703 1.431-4.394 4.24-4.394 7.298v11.544c0 4.561 3.697 8.258 8.258 8.258h264.258c4.561 0 8.258-3.697 8.258-8.258v-11.544c0-3.059-1.691-5.867-4.394-7.298l-128.265-67.905c-4.834-2.559-10.622-2.559-15.456 0z" fill="#f4dbb3"/><path d="m149.688 198.842 98.585-52.192c4.834-2.559 10.621-2.559 15.455 0l98.585 52.192c3.722 1.971 2.322 7.61-1.89 7.61h-208.845c-4.212 0-5.613-5.639-1.89-7.61z" fill="#eac89f"/><path d="m256 0c-141.385 0-256 114.615-256 256s114.615 256 256 256 256-114.615 256-256-114.615-256-256-256zm0 487.226c-127.703 0-231.226-103.524-231.226-231.226 0-127.703 103.523-231.226 231.226-231.226s231.226 103.523 231.226 231.226c0 127.702-103.523 231.226-231.226 231.226z" fill="#ff8086"/><path d="m214.739 20.097c-130.285 22.788-217.429 146.878-194.642 277.164 22.788 130.285 146.878 217.43 277.163 194.642s217.43-146.878 194.642-277.163c-22.787-130.287-146.877-217.43-277.163-194.643zm-178.373 274.318c-21.216-121.3 59.919-236.832 181.219-258.049 57.724-10.096 114.116 3.023 159.685 32.581l-256.055 364.614c-43.271-32.83-74.752-81.422-84.849-139.146zm258.049 181.219c-57.724 10.096-114.116-3.023-159.685-32.581l256.055-364.614c43.271 32.831 74.752 81.422 84.849 139.146 21.216 121.3-59.919 236.832-181.219 258.049z" fill="#e5646e"/></g></svg>