<svg id="Capa_1" enable-background="new 0 0 512 512" height="512" viewBox="0 0 512 512" width="512" xmlns="http://www.w3.org/2000/svg"><g><path d="m244.431 159.523c-25.468 3.628-50.059 11.035-72.94 21.955-5.245 2.503-6.495 9.398-2.331 13.452l37.292 36.296 107.355-24.774-50.663-41.494c-5.235-4.288-12.015-6.389-18.713-5.435z" fill="#b49180"/><path d="m94.57 228.479 5.702 21.041c1.15 4.243 1.15 8.716 0 12.959l-5.702 21.041c-1.627 6.003 3.976 11.457 9.933 9.67l68.916-20.675v-33.032l-68.916-20.675c-5.957-1.786-11.56 3.668-9.933 9.671z" fill="#b49180"/><path d="m424.867 243.683c-18.152-16.02-39.296-29.075-62.572-38.305l-15.871-5.592c-20.648-6.389-42.71-9.85-65.651-9.85-55.799 0-106.399 20.479-144.093 53.747-1.104.974-2.042 2.064-2.814 3.236l2.814 13.581c37.695 33.269 88.294 53.747 144.093 53.747s106.399-20.479 144.093-53.747l2.821-13.571c-.772-1.175-1.713-2.269-2.82-3.246z" fill="#eac89f"/><path d="m279.083 256.498 15.084 20.113c1.908 2.544 5.108 3.767 8.226 3.143l36.187-7.237v-24.774h-55.119c-4.509-.001-7.084 5.147-4.378 8.755z" fill="#b49180"/><path d="m427.688 246.929c-21.711 17.359-47.37 30.821-75.45 39.487-3.423-9.522-5.4-19.727-5.4-30.416 0-18.712 5.721-36.154 15.457-50.622-5.197-2.061-10.47-3.922-15.871-5.592-10.107 16.366-16.102 35.607-16.102 56.214 0 12.198 2.175 23.858 5.984 34.766-17.753 4.152-36.311 6.524-55.533 6.524-56.464 0-107.856-19.148-146.907-50.371-1.793 2.728-2.702 5.914-2.702 9.081 0 4.536 1.838 9.072 5.516 12.317 37.695 33.269 88.294 53.747 144.093 53.747s106.399-20.479 144.093-53.747c3.677-3.245 5.516-7.781 5.516-12.317.001-3.167-.901-6.343-2.694-9.071z" fill="#d2af8c"/><path d="m379.871 264.258c-4.565 0-8.258-3.694-8.258-8.258v-8.258c0-4.565 3.694-8.258 8.258-8.258s8.258 3.694 8.258 8.258v8.258c0 4.565-3.694 8.258-8.258 8.258z" fill="#b49180"/><path d="m256 0c-141.385 0-256 114.615-256 256s114.615 256 256 256 256-114.615 256-256-114.615-256-256-256zm0 487.226c-127.703 0-231.226-103.524-231.226-231.226 0-127.703 103.523-231.226 231.226-231.226s231.226 103.523 231.226 231.226c0 127.702-103.523 231.226-231.226 231.226z" fill="#ff8086"/><path d="m256 16.516c-132.263 0-239.484 107.22-239.484 239.484 0 132.263 107.221 239.484 239.484 239.484s239.484-107.221 239.484-239.484c0-132.264-107.221-239.484-239.484-239.484zm-222.968 239.484c0-123.142 99.826-222.968 222.968-222.968 58.6 0 111.889 22.639 151.684 59.606l-315.045 315.046c-36.968-39.795-59.607-93.084-59.607-151.684zm222.968 222.968c-58.6 0-111.889-22.639-151.684-59.606l315.045-315.045c36.968 39.794 59.607 93.083 59.607 151.683 0 123.142-99.826 222.968-222.968 222.968z" fill="#e5646e"/></g></svg>