<svg id="Capa_1" enable-background="new 0 0 512 512" height="512" viewBox="0 0 512 512" width="512" xmlns="http://www.w3.org/2000/svg"><g><path d="m368 380h-28.686l20.284-20.284c3.125-3.125 3.125-8.19 0-11.314-3.124-3.124-8.189-3.124-11.313 0l-20.285 20.284v-28.686c0-4.418-3.582-8-8-8s-8 3.582-8 8v28.686l-20.284-20.284c-3.125-3.124-8.189-3.124-11.314 0-3.124 3.124-3.124 8.189 0 11.314l20.284 20.284h-28.686c-4.418 0-8 3.582-8 8s3.582 8 8 8h28.686l-20.284 20.284c-3.124 3.124-3.124 8.189 0 11.313 3.125 3.125 8.189 3.125 11.314 0l20.284-20.284v28.687c0 4.418 3.582 8 8 8s8-3.582 8-8v-28.687l20.284 20.284c3.125 3.125 8.189 3.125 11.313 0 3.125-3.124 3.125-8.189 0-11.313l-20.283-20.284h28.686c4.418 0 8-3.582 8-8 0-4.419-3.582-8-8-8z" fill="#ffe07d"/><g fill="#dbeaff"><path d="m287.352 115.227c3.961 1.898 8.766.195 10.656-3.793 17.148-36.106 54.047-59.434 93.992-59.434 57.344 0 104 46.652 104 104 0 3.407-.17 6.774-.492 10.098h16.063c.279-3.33.429-6.697.429-10.098 0-66.168-53.828-120-120-120-46.086 0-88.656 26.914-108.445 68.566-1.899 3.993-.196 8.766 3.797 10.661z"/><path d="m176 260h-128c-4.422 0-8 3.582-8 8s3.578 8 8 8h128z"/></g><path d="m352 388c0-17.673-14.327-32-32-32-5.739 0-11.125 1.511-15.783 4.156-9.685 5.501-13.884 15.91-13.884 27.844 0 17.673 11.994 28 29.667 28 11.927 0 22.329-2.525 27.833-12.2 2.652-4.661 4.167-10.054 4.167-15.8z" fill="#ff8086"/><g fill="#dbeaff"><path d="m240 300h-216c-4.422 0-8 3.582-8 8s3.578 8 8 8h216z"/><path d="m391.659 380.964c.207 2.192.341 4.791.341 7.036 0 39.699-32.297 72-72 72-28.617 0-54.523-16.945-66-43.172-1.766-4.047-6.484-5.895-10.531-4.121-4.055 1.77-5.898 6.488-4.125 10.535 14.015 32.051 45.679 52.758 80.656 52.758 48.523 0 88-39.477 88-88 0-3.298-.195-6.551-.552-9.756-5.281.92-10.565 1.517-15.789 2.72z"/></g><path d="m200 356h-192c-4.422 0-8-3.582-8-8s3.578-8 8-8h192c4.422 0 8 3.582 8 8s-3.578 8-8 8z" fill="#edf4ff"/><path d="m232 236h-168c-4.422 0-8-3.582-8-8s3.578-8 8-8h168c8.82 0 16-7.176 16-16s-7.18-16-16-16c-4.422 0-8-3.582-8-8s3.578-8 8-8c17.648 0 32 14.355 32 32s-14.352 32-32 32z" fill="#edf4ff"/><path d="m332 408c-17.673 0-32-14.327-32-32 0-5.743 1.568-11.184 4.217-15.844-9.678 5.503-16.217 15.914-16.217 27.844 0 17.673 14.327 32 32 32 11.93 0 22.331-6.52 27.833-16.2-4.659 2.649-10.09 4.2-15.833 4.2z" fill="#e5646e"/><path d="m503.707 156c-4.102 0-7.672 3.094-7.952 7.187-3.704 54.008-48.827 96.813-103.755 96.813h-216c-4.418 0-8 3.582-8 8 0 4.418 3.582 8 8 8h216c63.209 0 115.155-49.119 119.68-111.189.344-4.724-3.237-8.811-7.973-8.811z" fill="#c3ddff"/><path d="m320 300h-80c-4.418 0-8 3.582-8 8 0 4.418 3.582 8 8 8h80c37.329 0 68.112 28.554 71.659 64.964.392 4.021 3.859 7.036 7.9 7.036 4.736 0 8.474-4.107 8.003-8.819-4.438-44.398-42.015-79.181-87.562-79.181z" fill="#c3ddff"/><path d="m344.402 100.402h16v32h-16z" fill="#ffd064" transform="matrix(.707 -.707 .707 .707 20.908 283.279)"/><circle cx="341.088" cy="105.088" fill="#ffe07d" r="8"/><path d="m423.598 179.598h16v32h-16z" fill="#ffd064" transform="matrix(-.707 .707 -.707 -.707 875.092 28.721)"/><circle cx="442.912" cy="206.912" fill="#ffe07d" r="8"/><path d="m344.402 179.598h16v32h-16z" fill="#ffd064" transform="matrix(-.707 -.707 .707 -.707 463.279 583.092)"/><circle cx="341.088" cy="206.912" fill="#ffe07d" r="8"/><path d="m423.598 100.402h16v32h-16z" fill="#ffd064" transform="matrix(.707 .707 -.707 .707 208.721 -271.092)"/><circle cx="442.912" cy="105.088" fill="#ffe07d" r="8"/><path d="m328 140h16v32h-16z" fill="#ffd064" transform="matrix(0 -1 1 0 180 492)"/><circle cx="320" cy="156" fill="#ffe07d" r="8"/><path d="m440 140h16v32h-16z" fill="#ffd064" transform="matrix(0 1 -1 0 604 -292)"/><circle cx="464" cy="156" fill="#ffe07d" r="8"/><path d="m384 196h16v32h-16z" fill="#ffd064" transform="matrix(-1 0 0 -1 784 424)"/><circle cx="392" cy="228" fill="#ffe07d" r="8"/><path d="m384 84h16v32h-16z" fill="#ffd064"/><circle cx="392" cy="84" fill="#ffe07d" r="8"/><path d="m440 156c0 9.932-3.017 19.159-8.183 26.816-8.624 12.78-23.239 17.707-39.817 17.707-26.51 0-42.43-18.014-42.43-44.523 0-16.578 2.834-31.192 15.613-39.817 7.657-5.166 16.885-8.183 26.817-8.183 26.51 0 48 21.49 48 48z" fill="#ff8086"/><path d="m405 191c-26.51 0-48-21.49-48-48 0-9.932 3.017-19.16 8.184-26.817-12.78 8.624-21.184 23.239-21.184 39.817 0 26.51 21.49 48 48 48 16.578 0 31.193-8.404 39.817-21.184-7.657 5.167-16.885 8.184-26.817 8.184z" fill="#e5646e"/><g fill="#ffe07d"><circle cx="408" cy="148" r="8"/><circle cx="376" cy="148" r="8"/><circle cx="392" cy="172" r="8"/></g></g></svg>